<svg xmlns="http://www.w3.org/2000/svg" width="97.585" height="58.561" viewBox="0 0 97.585 58.561">
    <defs>
        <style>
            .cls-2{mix-blend-mode:luminosity;isolation:isolate}.cls-4{fill:#fff}
        </style>
    </defs>
    <g id="Group_160" opacity="0.3" transform="translate(.5 .5)">
        <g id="Group_157" class="cls-2">
            <path id="Path_370" fill="none" stroke="#fff" d="M1218.683 683.153H1129.9a3.9 3.9 0 0 0-3.9 3.9v49.756a3.9 3.9 0 0 0 3.9 3.9h88.78a3.9 3.9 0 0 0 3.9-3.9v-49.754a3.9 3.9 0 0 0-3.897-3.902z" transform="translate(-1126 -683.153)"/>
        </g>
        <g id="Group_158" class="cls-2" transform="translate(27.951 30.083)">
            <path id="Path_371" d="M1208.562 717.237h-3.454a1.306 1.306 0 0 0-.761.142.621.621 0 0 0-.273.568.6.6 0 0 0 .41.588 2.176 2.176 0 0 0 .732.089l1.024.027a3 3 0 0 1 2.146.635 1.175 1.175 0 0 1 .176.2zm0 5.2a2.95 2.95 0 0 1-2.566 1.01h-3.659v-1.692h3.639a1.1 1.1 0 0 0 .771-.2.71.71 0 0 0 .224-.514.656.656 0 0 0-.234-.522.968.968 0 0 0-.663-.175c-1.776-.06-4 .055-4-2.443 0-1.144.732-2.349 2.722-2.349h3.766v-1.57h-3.5a3.976 3.976 0 0 0-2.371.645v-.645h-5.171a3.6 3.6 0 0 0-2.263.645v-.645h-9.249v.645a4.9 4.9 0 0 0-2.546-.645h-6.1v.645a4.322 4.322 0 0 0-2.663-.645h-6.829l-1.561 1.685-1.463-1.685h-10.2V725h10.01l1.61-1.711 1.512 1.711 6.166.006v-2.59h.6a6.431 6.431 0 0 0 2.634-.387V725h5.083v-2.869h.254c.312 0 .341.013.341.325V725h15.444a4.412 4.412 0 0 0 2.576-.7v.7h4.9a6.614 6.614 0 0 0 2.78-.507zm-7.551-3.152a2.184 2.184 0 0 1 .566 1.672c0 1.7-1.063 2.49-2.966 2.49h-3.688v-1.692h3.668a1.143 1.143 0 0 0 .781-.2.7.7 0 0 0 .215-.514.682.682 0 0 0-.224-.522 1 1 0 0 0-.673-.175c-1.766-.06-3.99.055-3.99-2.443 0-1.144.722-2.349 2.712-2.349h3.785v1.68h-3.463a1.271 1.271 0 0 0-.761.142.662.662 0 0 0 .127 1.155 2.234 2.234 0 0 0 .741.09l1.015.027a3.035 3.035 0 0 1 2.155.641zm-17.063-.487a1.807 1.807 0 0 1-.927.162h-2.3v-1.77h2.332a1.845 1.845 0 0 1 .9.142.752.752 0 0 1 .39.71.852.852 0 0 1-.395.758zm1.141.982a2.042 2.042 0 0 1 .927.662 2.209 2.209 0 0 1 .312 1.441v1.564h-1.893v-.987a2.331 2.331 0 0 0-.312-1.544c-.273-.283-.693-.35-1.385-.35h-2.019v2.882h-1.9v-7.891h4.371a4.69 4.69 0 0 1 2.273.373 1.852 1.852 0 0 1 .976 1.752 2.213 2.213 0 0 1-1.35 2.099zm2.39-4.223h6.312v1.632h-4.429v1.434h4.322v1.61h-4.322v1.57l4.429.008v1.637h-6.312zm-12.761 3.642h-2.439v-2.01h2.468c.683 0 1.151.277 1.151.968s-.448 1.043-1.18 1.043zm-4.322 3.531l-2.907-3.214 2.907-3.112zm-7.5-.927h-4.654v-1.57h4.156v-1.61h-4.156v-1.433h4.741l2.078 2.3zm15.034-3.646c0 2.191-1.639 2.644-3.288 2.644h-2.361v2.647h-3.681l-2.332-2.612-2.42 2.612h-7.493v-7.891h7.61l2.332 2.586 2.4-2.586h6.049c1.494.001 3.182.415 3.182 2.601z" class="cls-4" transform="translate(-1154.65 -713.988)"/>
        </g>
        <g id="Group_159" class="cls-2" transform="translate(14.576 16.511)">
            <path id="Path_372" d="M1147 706.126l-1.288-3.144-1.288 3.144zm28.517-1.252a1.73 1.73 0 0 1-.927.162h-2.3v-1.752h2.332a1.942 1.942 0 0 1 .9.142.72.72 0 0 1 .39.7.792.792 0 0 1-.396.748zm16.39 1.252l-1.307-3.144-1.3 3.144zm-30.546 3.4h-1.941l-.01-6.179-2.741 6.179h-1.659l-2.751-6.183v6.183h-3.844l-.732-1.759h-3.932l-.732 1.759h-2.058l3.385-7.889h2.81l3.219 7.469v-7.469h3.083l2.478 5.352 2.273-5.352h3.151v7.889zm7.727 0h-6.322v-7.889h6.322v1.643h-4.429v1.422h4.322v1.617h-4.322v1.581h4.429zm8.907-5.764a2.213 2.213 0 0 1-1.337 2.1 2.152 2.152 0 0 1 .937.664 2.227 2.227 0 0 1 .312 1.448v1.549H1176l-.01-1a2.32 2.32 0 0 0-.3-1.536c-.273-.277-.693-.338-1.376-.338h-2.029v2.869h-1.893v-7.889h4.351a4.485 4.485 0 0 1 2.293.379 1.843 1.843 0 0 1 .958 1.758zm3.024 5.764h-1.932v-7.889h1.932zm22.39 0h-2.683l-3.58-5.921v5.921h-3.854l-.732-1.759h-3.932l-.712 1.759h-2.216a3.351 3.351 0 0 1-3.756-3.884 4.168 4.168 0 0 1 1.024-3.085 3.821 3.821 0 0 1 2.868-.92h1.834v1.691h-1.8a1.812 1.812 0 0 0-1.454.467 2.6 2.6 0 0 0-.547 1.787 2.73 2.73 0 0 0 .517 1.852 1.828 1.828 0 0 0 1.317.407h.859l2.663-6.2h2.829l3.2 7.461v-7.461h2.888l3.317 5.494v-5.494h1.941zm-62.468 1.549h3.229l.732-1.752h1.629l.722 1.752h6.361v-1.335l.566 1.345h3.307l.566-1.365v1.359h15.8V708.2h.3c.215.008.273.027.273.38v2.5h8.176v-.669a6.485 6.485 0 0 0 3.034.669h3.434l.742-1.752h1.629l.722 1.752h6.624v-1.664l1.005 1.664h5.307v-11h-5.258v1.3l-.732-1.3h-5.4v1.3l-.673-1.3h-7.288a6.537 6.537 0 0 0-3.151.643v-.643h-5.024v.643a3.138 3.138 0 0 0-2.136-.643h-18.361l-1.229 2.842-1.268-2.842h-5.786v1.3l-.634-1.3h-4.927l-2.293 5.231z" class="cls-4" transform="translate(-1140.94 -700.077)"/>
        </g>
    </g>
</svg>
