<svg xmlns="http://www.w3.org/2000/svg" width="97.585" height="58.561" viewBox="0 0 97.585 58.561">
    <defs>
        <style>
            .cls-2{mix-blend-mode:luminosity;isolation:isolate}.cls-4,.cls-5{fill:#fff}.cls-5{fill-rule:evenodd}
        </style>
    </defs>
    <g id="Group_156" opacity="0.3" transform="translate(.5 .5)">
        <g id="Group_135" class="cls-2">
            <path id="Path_349" fill="none" stroke="#fff" d="M1090.683 683.153H1001.9a3.9 3.9 0 0 0-3.9 3.9v49.756a3.9 3.9 0 0 0 3.9 3.9h88.78a3.9 3.9 0 0 0 3.9-3.9v-49.754a3.9 3.9 0 0 0-3.897-3.902z" transform="translate(-998 -683.153)"/>
        </g>
        <g id="Group_136" class="cls-2" transform="translate(26.654 18.068)">
            <path id="Path_350" d="M1032.393 706.491a3.829 3.829 0 0 1 1.678.342 3.334 3.334 0 0 1 1.18.928 3.962 3.962 0 0 1 .683 1.371 6.276 6.276 0 0 1 .224 1.693 6.825 6.825 0 0 1-.517 2.631 6.75 6.75 0 0 1-1.4 2.157 6.625 6.625 0 0 1-2.107 1.45 6.455 6.455 0 0 1-2.634.535c-.127 0-.341 0-.644-.01a9.369 9.369 0 0 1-1.034-.09 12.171 12.171 0 0 1-1.249-.243 6.222 6.222 0 0 1-1.249-.444l3.5-14.653 3.141-.485-1.259 5.2a5.28 5.28 0 0 1 .81-.282 3.762 3.762 0 0 1 .877-.1zm-2.634 8.628a2.775 2.775 0 0 0 1.337-.342 3.482 3.482 0 0 0 1.083-.917 4.648 4.648 0 0 0 .722-1.3 4.392 4.392 0 0 0 .263-1.513 2.976 2.976 0 0 0-.322-1.51 1.3 1.3 0 0 0-1.2-.544 3.893 3.893 0 0 0-.741.1 1.86 1.86 0 0 0-.82.425l-1.337 5.522c.078.014.156.027.215.04a1.727 1.727 0 0 0 .185.03 2.253 2.253 0 0 0 .244.012z" class="cls-4" transform="translate(-1025.32 -701.673)"/>
        </g>
        <g id="Group_137" class="cls-2" transform="translate(37.746 18.271)">
            <path id="Path_351" d="M1039.695 717.32h-3.005l2.537-10.6h3.024zm1.454-11.892a1.87 1.87 0 0 1-1.132-.373 1.31 1.31 0 0 1-.507-1.14 1.842 1.842 0 0 1 .176-.8 2.032 2.032 0 0 1 .449-.646 2.305 2.305 0 0 1 .663-.434 2.02 2.02 0 0 1 .8-.16 1.848 1.848 0 0 1 1.132.372 1.316 1.316 0 0 1 .507 1.139 1.848 1.848 0 0 1-.176.8 2.045 2.045 0 0 1-.449.646 2.139 2.139 0 0 1-.663.432 1.954 1.954 0 0 1-.8.164z" class="cls-4" transform="translate(-1036.69 -701.881)"/>
        </g>
        <g id="Group_138" class="cls-2" transform="translate(43.653 19.984)">
            <path id="Path_352" d="M1045.023 704.122l3.142-.485-.771 3.125h3.356l-.6 2.458h-3.35l-.888 3.708a4.206 4.206 0 0 0-.137.865 1.555 1.555 0 0 0 .1.7.857.857 0 0 0 .439.452 1.977 1.977 0 0 0 .9.163 4.858 4.858 0 0 0 .946-.092 6.77 6.77 0 0 0 .917-.252l.224 2.3a11.079 11.079 0 0 1-1.317.382 7.649 7.649 0 0 1-1.678.161 4.7 4.7 0 0 1-2.176-.412 2.413 2.413 0 0 1-1.093-1.131 3.535 3.535 0 0 1-.283-1.641 11.233 11.233 0 0 1 .283-1.956z" class="cls-5" transform="translate(-1042.745 -703.637)"/>
        </g>
        <g id="Group_139" class="cls-2" transform="translate(51.532 22.825)">
            <path id="Path_353" d="M1050.82 713.2a7.294 7.294 0 0 1 .449-2.581 6.252 6.252 0 0 1 1.278-2.118 5.9 5.9 0 0 1 2.01-1.429 6.46 6.46 0 0 1 2.644-.525 7.007 7.007 0 0 1 1.629.172 6.592 6.592 0 0 1 1.307.453l-1.034 2.34a8.535 8.535 0 0 0-.839-.293 3.685 3.685 0 0 0-1.063-.132 2.98 2.98 0 0 0-2.38 1.026 4.113 4.113 0 0 0-.878 2.763 2.871 2.871 0 0 0 .439 1.663 1.892 1.892 0 0 0 1.649.634 5.242 5.242 0 0 0 1.132-.121 5.673 5.673 0 0 0 .976-.3l.224 2.4a10.9 10.9 0 0 1-1.259.394 6.965 6.965 0 0 1-1.639.17 5.547 5.547 0 0 1-2.127-.362 4.053 4.053 0 0 1-1.444-.979 3.63 3.63 0 0 1-.82-1.442 5.968 5.968 0 0 1-.254-1.733z" class="cls-5" transform="translate(-1050.82 -706.549)"/>
        </g>
        <g id="Group_140" class="cls-2" transform="translate(60.634 22.826)">
            <path id="Path_354" d="M1064.365 717.717a4.931 4.931 0 0 1-1.863-.323 3.486 3.486 0 0 1-1.307-.907 3.942 3.942 0 0 1-.78-1.38 5.583 5.583 0 0 1-.263-1.762 7.753 7.753 0 0 1 .4-2.421 7.007 7.007 0 0 1 1.161-2.176 6.3 6.3 0 0 1 1.883-1.585 5.234 5.234 0 0 1 2.556-.614 4.97 4.97 0 0 1 1.854.323 3.417 3.417 0 0 1 1.317.907 3.969 3.969 0 0 1 .78 1.381 5.575 5.575 0 0 1 .263 1.762 8.048 8.048 0 0 1-.38 2.421 7.02 7.02 0 0 1-1.141 2.176 5.911 5.911 0 0 1-1.873 1.581 5.365 5.365 0 0 1-2.607.617zm1.5-8.626a1.915 1.915 0 0 0-1.18.383 3.447 3.447 0 0 0-.849.968 5.033 5.033 0 0 0-.517 1.279 5.369 5.369 0 0 0-.166 1.32 3.2 3.2 0 0 0 .322 1.574 1.233 1.233 0 0 0 1.171.564 1.9 1.9 0 0 0 1.18-.384 3.4 3.4 0 0 0 .849-.967 4.994 4.994 0 0 0 .517-1.279 5.4 5.4 0 0 0 .176-1.32 3.19 3.19 0 0 0-.332-1.573 1.231 1.231 0 0 0-1.169-.566z" class="cls-4" transform="translate(-1060.15 -706.55)"/>
        </g>
        <g id="Group_141" class="cls-2" transform="translate(71.112 18.271)">
            <path id="Path_355" d="M1073.895 717.32h-3l2.537-10.6h3.015zm1.454-11.892a1.849 1.849 0 0 1-1.132-.373 1.309 1.309 0 0 1-.507-1.14 1.842 1.842 0 0 1 .176-.8 2.03 2.03 0 0 1 .449-.646 2.3 2.3 0 0 1 .663-.434 1.986 1.986 0 0 1 .8-.16 1.848 1.848 0 0 1 1.132.372 1.316 1.316 0 0 1 .507 1.139 1.848 1.848 0 0 1-.176.8 2.041 2.041 0 0 1-.449.646 2.258 2.258 0 0 1-.663.432 1.955 1.955 0 0 1-.8.164z" class="cls-4" transform="translate(-1070.89 -701.881)"/>
        </g>
        <g id="Group_142" class="cls-2" transform="translate(76.371 22.866)">
            <path id="Path_356" d="M1078.739 707.317c.224-.066.478-.145.751-.232s.6-.167.937-.24a11.527 11.527 0 0 1 1.151-.182 13.3 13.3 0 0 1 1.454-.071 3.609 3.609 0 0 1 3.268 1.372 4.639 4.639 0 0 1 .322 3.748l-1.385 5.725h-3.015l1.337-5.6c.078-.35.146-.689.2-1.02a2.545 2.545 0 0 0-.01-.865 1.07 1.07 0 0 0-.38-.6 1.437 1.437 0 0 0-.9-.232 6.19 6.19 0 0 0-1.2.123l-1.961 8.2h-3.024z" class="cls-5" transform="translate(-1076.28 -706.591)"/>
        </g>
        <g id="Group_143" class="cls-2" transform="translate(41.376 36.953)">
            <path id="Path_357" d="M1041.63 724.106l-.585 1.063h-.634c.439-.8.878-1.545 1.307-2.222s.849-1.316 1.268-1.917h.566c.058.3.117.6.166.9s.1.624.146.959.1.69.137 1.063.088.779.137 1.213h-.585l-.059-.541c-.02-.182-.029-.355-.049-.523zm1.756-.466c-.029-.322-.068-.643-.107-.962s-.088-.647-.146-.985l-.527.785q-.308.481-.7 1.162z" class="cls-4" transform="translate(-1040.41 -721.03)"/>
        </g>
        <g id="Group_144" class="cls-2" transform="translate(45.659 36.858)">
            <path id="Path_358" d="M1046.371 725.256a1.9 1.9 0 0 1-.683-.113 1.4 1.4 0 0 1-.5-.323 1.3 1.3 0 0 1-.293-.5 2.03 2.03 0 0 1-.1-.666 3.017 3.017 0 0 1 .166-1.027 2.722 2.722 0 0 1 .488-.865 2.277 2.277 0 0 1 .761-.6 2.147 2.147 0 0 1 .985-.223 2.374 2.374 0 0 1 .751.1 1.7 1.7 0 0 1 .4.179l-.244.478a1.628 1.628 0 0 0-.371-.17 1.778 1.778 0 0 0-.566-.081 1.421 1.421 0 0 0-.741.194 1.741 1.741 0 0 0-.556.5 2.175 2.175 0 0 0-.351.693 2.6 2.6 0 0 0-.117.762c0 .776.332 1.164 1.015 1.164a2.131 2.131 0 0 0 .38-.03 2.618 2.618 0 0 0 .3-.068 1.688 1.688 0 0 0 .234-.087c.068-.032.137-.059.185-.084l.068.5a1.528 1.528 0 0 1-.185.089 2.14 2.14 0 0 1-.273.091 3.217 3.217 0 0 1-.351.068 2.842 2.842 0 0 1-.402.019z" class="cls-5" transform="translate(-1044.8 -720.932)"/>
        </g>
        <g id="Group_145" class="cls-2" transform="translate(49.024 36.858)">
            <path id="Path_359" d="M1049.83 725.256a1.861 1.861 0 0 1-.683-.113 1.241 1.241 0 0 1-.5-.323 1.317 1.317 0 0 1-.3-.5 2.331 2.331 0 0 1-.1-.666 3.023 3.023 0 0 1 .176-1.027 2.72 2.72 0 0 1 .488-.865 2.276 2.276 0 0 1 .761-.6 2.147 2.147 0 0 1 .985-.223 2.373 2.373 0 0 1 .751.1 1.909 1.909 0 0 1 .4.179l-.244.478a1.854 1.854 0 0 0-.371-.17 1.821 1.821 0 0 0-.566-.081 1.42 1.42 0 0 0-.741.194 1.885 1.885 0 0 0-.566.5 2.377 2.377 0 0 0-.341.693 2.626 2.626 0 0 0-.127.762c0 .776.341 1.164 1.015 1.164a2.248 2.248 0 0 0 .39-.03 2.61 2.61 0 0 0 .3-.068 1.682 1.682 0 0 0 .234-.087c.068-.032.127-.059.185-.084l.068.5a1.535 1.535 0 0 1-.185.089 2.842 2.842 0 0 1-.273.091 3.217 3.217 0 0 1-.351.068 2.844 2.844 0 0 1-.405.019z" class="cls-5" transform="translate(-1048.25 -720.932)"/>
        </g>
        <g id="Group_146" class="cls-2" transform="translate(52.215 36.952)">
            <path id="Path_360" d="M1051.52 725.169l1.005-4.14h2.449l-.107.484h-1.883l-.3 1.249h1.668l-.107.471h-1.668l-.351 1.452h2.02l-.117.484z" class="cls-5" transform="translate(-1051.52 -721.029)"/>
        </g>
        <g id="Group_147" class="cls-2" transform="translate(55.356 36.91)">
            <path id="Path_361" d="M1056.789 720.986a1.853 1.853 0 0 1 1.1.275.942.942 0 0 1 .371.8 1.565 1.565 0 0 1-.156.7 1.392 1.392 0 0 1-.439.487 1.978 1.978 0 0 1-.673.284 3.958 3.958 0 0 1-.888.093h-.41l-.371 1.542h-.585l.985-4.086a3.042 3.042 0 0 1 .537-.078c.187-.011.363-.017.529-.017zm-.068.49a3.06 3.06 0 0 0-.517.024l-.4 1.643h.38a3.068 3.068 0 0 0 .517-.045 1.642 1.642 0 0 0 .478-.158.965.965 0 0 0 .342-.314.922.922 0 0 0 .137-.516.525.525 0 0 0-.254-.488 1.341 1.341 0 0 0-.684-.146z" class="cls-4" transform="translate(-1054.74 -720.986)"/>
        </g>
        <g id="Group_148" class="cls-2" transform="translate(59.219 36.952)">
            <path id="Path_362" d="M1061.91 721.029l-.117.484h-1.259l-.878 3.656h-.585l.888-3.656h-1.259l.117-.484z" class="cls-5" transform="translate(-1058.7 -721.029)"/>
        </g>
        <g id="Group_149" class="cls-2" transform="translate(61.883 36.952)">
            <path id="Path_363" d="M1061.43 725.169l1-4.14h2.458l-.117.484h-1.873l-.3 1.249h1.668l-.117.471h-1.658l-.351 1.452h2.01l-.107.484z" class="cls-5" transform="translate(-1061.43 -721.029)"/>
        </g>
        <g id="Group_150" class="cls-2" transform="translate(65.034 36.91)">
            <path id="Path_364" d="M1066.689 720.986a1.953 1.953 0 0 1 1.385.433 1.542 1.542 0 0 1 .458 1.168 3.059 3.059 0 0 1-.166.988 2.218 2.218 0 0 1-.507.84 2.4 2.4 0 0 1-.868.579 3.411 3.411 0 0 1-1.268.216c-.176 0-.351-.008-.546-.024a2.729 2.729 0 0 1-.517-.083l.966-4.021a3.072 3.072 0 0 1 .527-.077c.195-.013.37-.019.536-.019zm-.049.49a3.28 3.28 0 0 0-.536.024l-.771 3.189a1.091 1.091 0 0 0 .166.022c.078.006.2.009.371.009a2.243 2.243 0 0 0 .859-.158 1.813 1.813 0 0 0 .644-.442 2.012 2.012 0 0 0 .41-.675 2.669 2.669 0 0 0 .137-.857 1.076 1.076 0 0 0-.3-.819 1.377 1.377 0 0 0-.98-.293z" class="cls-4" transform="translate(-1064.66 -720.986)"/>
        </g>
        <g id="Group_151" class="cls-2" transform="translate(70.293 36.952)">
            <path id="Path_365" d="M1073.143 725.169h-.576l.459-1.923h-1.932l-.458 1.923h-.585l.995-4.14h.585l-.42 1.733h1.932l.42-1.733h.576z" class="cls-5" transform="translate(-1070.05 -721.029)"/>
        </g>
        <g id="Group_152" class="cls-2" transform="translate(74.302 36.952)">
            <path id="Path_366" d="M1074.16 725.169l1-4.14h2.449l-.107.484h-1.883l-.3 1.249h1.668l-.117.471h-1.658l-.351 1.452h2.01l-.107.484z" class="cls-5" transform="translate(-1074.16 -721.029)"/>
        </g>
        <g id="Group_153" class="cls-2" transform="translate(77.444 36.91)">
            <path id="Path_367" d="M1079.429 720.986a1.853 1.853 0 0 1 1.063.269.911.911 0 0 1 .39.787 1.3 1.3 0 0 1-.312.882 1.729 1.729 0 0 1-.868.51 3.457 3.457 0 0 1 .166.32q.1.195.2.43c.068.157.127.32.2.489s.117.334.166.494h-.6a4.715 4.715 0 0 0-.176-.461q-.088-.233-.176-.448c-.068-.143-.127-.278-.185-.4s-.127-.237-.176-.332c-.049 0-.107.007-.156.009s-.107 0-.156 0h-.458l-.39 1.631h-.585l.985-4.086a3.043 3.043 0 0 1 .536-.078q.283-.016.532-.016zm-.068.49a3.059 3.059 0 0 0-.517.024l-.38 1.565h.361a3.668 3.668 0 0 0 .5-.035 1.622 1.622 0 0 0 .478-.14.935.935 0 0 0 .341-.293.788.788 0 0 0 .137-.5.511.511 0 0 0-.254-.478 1.322 1.322 0 0 0-.666-.143z" class="cls-4" transform="translate(-1077.38 -720.986)"/>
        </g>
        <g id="Group_154" class="cls-2" transform="translate(80.985 36.952)">
            <path id="Path_368" d="M1081.01 725.169l1-4.14h2.459l-.117.484h-1.873l-.3 1.249h1.668l-.117.471h-1.659l-.351 1.452h2.01l-.107.484z" class="cls-5" transform="translate(-1081.01 -721.029)"/>
        </g>
        <g id="Group_155" class="cls-2" transform="translate(10.273 18.069)">
            <path id="Path_369" d="M1016.53 717.6a7.962 7.962 0 1 1 8-7.961 7.98 7.98 0 0 1-8 7.961zm3.522-9.1c.166-1.06-.644-1.629-1.756-2.009l.361-1.436-.878-.219-.351 1.4q-.351-.085-.7-.165l.351-1.407-.878-.218-.361 1.435c-.2-.043-.38-.086-.556-.132l-1.21-.3-.234.933s.644.148.634.158a.471.471 0 0 1 .41.508l-.41 1.635a.545.545 0 0 1 .088.029l-.088-.023-.576 2.292a.322.322 0 0 1-.4.207c.01.013-.644-.158-.644-.158l-.439 1 1.151.283.624.161-.371 1.452.878.218.361-1.436c.244.064.478.124.7.18l-.361 1.429.878.219.371-1.449c1.493.281 2.624.168 3.093-1.18a1.531 1.531 0 0 0-.81-2.119 1.386 1.386 0 0 0 1.123-1.288zm-2 2.8c-.273 1.085-2.107.5-2.7.351l.478-1.924c.593.149 2.505.442 2.222 1.573zm.273-2.816c-.254.987-1.776.486-2.273.363l.439-1.744c.488.123 2.088.352 1.834 1.382z" class="cls-4" transform="translate(-1008.53 -701.674)"/>
        </g>
    </g>
</svg>
