<svg xmlns="http://www.w3.org/2000/svg" width="97.585" height="58.561" viewBox="0 0 97.585 58.561">
    <defs>
        <style>
            .cls-2{mix-blend-mode:luminosity;isolation:isolate}
        </style>
    </defs>
    <g id="Group_128" opacity="0.3" transform="translate(.5 .5)">
        <g id="Group_126" class="cls-2">
            <path id="Path_343" fill="none" stroke="#fff" d="M706.683 683.153H617.9a3.9 3.9 0 0 0-3.9 3.9v49.756a3.9 3.9 0 0 0 3.9 3.9h88.781a3.9 3.9 0 0 0 3.9-3.9v-49.754a3.9 3.9 0 0 0-3.898-3.902z" transform="translate(-614 -683.153)"/>
        </g>
        <g id="Group_127" class="cls-2" transform="translate(9.434 22.17)">
            <path id="Path_344" fill="#fff" d="M696.337 711.647a3.445 3.445 0 0 1-1.961.453h-.87l.667-3.547h.64a3.031 3.031 0 0 1 1.627.349 1.379 1.379 0 0 1 .626 1.237 1.72 1.72 0 0 1-.729 1.508zm-51.919 4.453h-6.736l.436-2.319h4.224l.48-2.612h-4.184l.4-2.3h6.724zm55.547-9.218a8.057 8.057 0 0 0-4.454-1h-5.145l-1.913 10.218h-6.74l.432-2.319h4.062l.483-2.606-4.059.008.434-2.309h4.182l.556-3h-8.5l-1.816 9.7h-3.114l1.828-9.7h-4.441l-1.816 9.7h-3.037l1.83-9.7H664.3l-1.911 10.226H655.6l.427-2.319h4.079l.481-2.59h-4.073l.432-2.313h4.228l.554-3h-26.465l-1.506 8.1-3-8.1h-4.607l-2.48 13.222h4.4l1.5-8.324 2.912 8.324h15.767l1.916-10.224h2.467l-1.917 10.224H692.2l1.2-6.455 1.947 6.455h4.4l-2.017-5.273.461-.1a3.959 3.959 0 0 0 2.359-1.364 4.173 4.173 0 0 0 .832-2.665 3.147 3.147 0 0 0-1.416-2.816z" transform="translate(-623.67 -705.877)"/>
        </g>
    </g>
</svg>
