<svg xmlns="http://www.w3.org/2000/svg" width="97.585" height="58.561" viewBox="0 0 97.585 58.561">
    <defs>
        <style>
            .cls-3,.cls-4{fill:#fff}.cls-4{fill-rule:evenodd}
        </style>
    </defs>
    <g id="Group_177" opacity="0.3" transform="translate(.5 .5)">
        <path id="Path_387" fill="none" stroke="#fff" d="M578.683 740.561H489.9a3.9 3.9 0 0 1-3.9-3.9V686.9a3.9 3.9 0 0 1 3.9-3.9h88.78a3.9 3.9 0 0 1 3.9 3.9v49.756a3.9 3.9 0 0 1-3.897 3.905z" transform="translate(-486 -683)"/>
        <path id="Path_388" d="M546.645 708.791c-.262 1.721-1.577 1.721-2.848 1.721h-.724l.508-3.214a.4.4 0 0 1 .394-.337h.332c.865 0 1.683 0 2.1.493a1.6 1.6 0 0 1 .238 1.337zm-.553-4.491h-4.8a.666.666 0 0 0-.658.563l-1.934 12.294a.4.4 0 0 0 .394.461h2.461a.466.466 0 0 0 .46-.393l.55-3.486a.665.665 0 0 1 .657-.562h1.517c3.158 0 4.98-1.529 5.457-4.558a3.689 3.689 0 0 0-.612-3.094 4.445 4.445 0 0 0-3.492-1.225z" class="cls-3" transform="translate(-487.285 -683.52)"/>
        <path id="Path_389" d="M511.594 708.791c-.262 1.721-1.577 1.721-2.848 1.721h-.723l.507-3.214a.4.4 0 0 1 .394-.337h.332c.865 0 1.683 0 2.1.493a1.6 1.6 0 0 1 .238 1.337zm-.553-4.491h-4.794a.666.666 0 0 0-.659.563l-1.939 12.294a.4.4 0 0 0 .394.461h2.29a.665.665 0 0 0 .658-.562l.524-3.317a.665.665 0 0 1 .658-.562h1.517c3.158 0 4.98-1.529 5.457-4.558a3.693 3.693 0 0 0-.611-3.094 4.449 4.449 0 0 0-3.495-1.225z" class="cls-3" transform="translate(-486.43 -683.52)"/>
        <path id="Path_390" d="M522.444 713.309a2.561 2.561 0 0 1-2.591 2.193 1.778 1.778 0 0 1-1.9-2.232 2.568 2.568 0 0 1 2.573-2.21 1.937 1.937 0 0 1 1.531.625 1.98 1.98 0 0 1 .387 1.624zm3.2-4.468h-2.3a.4.4 0 0 0-.4.338l-.1.642-.16-.233a3.271 3.271 0 0 0-2.712-.963 5.28 5.28 0 0 0-5.125 4.618 4.331 4.331 0 0 0 .855 3.527 3.592 3.592 0 0 0 2.892 1.167 4.4 4.4 0 0 0 3.179-1.312l-.1.638a.4.4 0 0 0 .4.461h2.067a.666.666 0 0 0 .659-.562l1.241-7.86a.4.4 0 0 0-.397-.461z" class="cls-3" transform="translate(-486.702 -683.625)"/>
        <path id="Path_391" d="M557.495 713.309a2.561 2.561 0 0 1-2.595 2.191 1.778 1.778 0 0 1-1.9-2.232 2.568 2.568 0 0 1 2.573-2.21 1.934 1.934 0 0 1 1.53.625 1.977 1.977 0 0 1 .392 1.626zm3.2-4.468h-2.3a.4.4 0 0 0-.4.338l-.1.642-.161-.233a3.269 3.269 0 0 0-2.712-.963 5.28 5.28 0 0 0-5.124 4.618 4.331 4.331 0 0 0 .855 3.527 3.592 3.592 0 0 0 2.892 1.167 4.4 4.4 0 0 0 3.179-1.312l-.1.638a.4.4 0 0 0 .4.461h2.067a.667.667 0 0 0 .659-.562l1.241-7.86a.4.4 0 0 0-.397-.461z" class="cls-3" transform="translate(-487.557 -683.625)"/>
        <path id="Path_392" d="M538.18 708.846h-2.307a.662.662 0 0 0-.55.293l-3.183 4.688-1.349-4.5a.668.668 0 0 0-.638-.476h-2.268a.4.4 0 0 0-.379.529l2.54 7.459-2.389 3.372a.4.4 0 0 0 .326.631h2.305a.667.667 0 0 0 .547-.287l7.674-11.076a.4.4 0 0 0-.329-.633z" class="cls-4" transform="translate(-487.012 -683.63)"/>
        <path id="Path_393" d="M563.69 704.638l-1.968 12.519a.4.4 0 0 0 .394.461h1.98a.665.665 0 0 0 .658-.562l1.94-12.295a.4.4 0 0 0-.4-.461h-2.214a.4.4 0 0 0-.39.338z" class="cls-4" transform="translate(-487.847 -683.52)"/>
    </g>
</svg>
