<svg xmlns="http://www.w3.org/2000/svg" width="97.585" height="58.561" viewBox="0 0 97.585 58.561">
    <defs>
        <style>
            .cls-2{mix-blend-mode:luminosity;isolation:isolate}.cls-4,.cls-5{fill:#fff}.cls-4{fill-rule:evenodd}
        </style>
    </defs>
    <g id="Group_176" opacity="0.3" transform="translate(.5 .5)">
        <g id="Group_168" class="cls-2">
            <path id="Path_379" fill="none" stroke="#fff" d="M1474.683 683.153H1385.9a3.9 3.9 0 0 0-3.9 3.9v49.756a3.9 3.9 0 0 0 3.9 3.9h88.78a3.9 3.9 0 0 0 3.9-3.9v-49.754a3.9 3.9 0 0 0-3.897-3.902z" transform="translate(-1382 -683.153)"/>
        </g>
        <g id="Group_169" class="cls-2" transform="translate(56.127 20.814)">
            <path id="Path_380" d="M1453.979 708.374a.717.717 0 0 1-.712-.717v-3.17H1453c-1.639 0-2.254.271-2.254 1.764v9.244a2.639 2.639 0 0 1-.351 1.441c-.449.688-1.337 1-2.751 1s-2.3-.314-2.751-1a2.639 2.639 0 0 1-.351-1.441v-9.244c0-1.493-.615-1.764-2.254-1.764h-.507c-1.649 0-2.254.271-2.254 1.764v9.244a6.818 6.818 0 0 0 .985 3.761c1.249 1.967 3.678 3.015 7.122 3.015h.02c3.454 0 5.873-1.048 7.122-3.015a6.82 6.82 0 0 0 .985-3.761v-7.121z" class="cls-4" transform="translate(-1439.53 -704.487)"/>
        </g>
        <g id="Group_170" class="cls-2" transform="translate(74.927 15.798)">
            <path id="Path_381" d="M1462.029 703.142h-2.693a.53.53 0 0 1-.536-.533v-2.73a.537.537 0 0 1 .536-.533h2.693a.537.537 0 0 1 .537.533v2.731a.536.536 0 0 1-.537.532z" class="cls-4" transform="translate(-1458.8 -699.346)"/>
        </g>
        <g id="Group_171" class="cls-2" transform="translate(72.371 13.22)">
            <path id="Path_382" d="M1458.375 699.282h-1.834a.364.364 0 0 1-.361-.362v-1.855a.364.364 0 0 1 .361-.361h1.834a.364.364 0 0 1 .361.362v1.855a.364.364 0 0 1-.361.361z" class="cls-4" transform="translate(-1456.18 -696.704)"/>
        </g>
        <g id="Group_172" class="cls-2" transform="translate(17.727 20.811)">
            <path id="Path_383" d="M1410.638 710.111c0 2.194-.556 3.382-3.512 3.382h-4.546v-5.66c0-.785.293-1.077 1.073-1.077h3.473c2.224 0 3.512.549 3.512 3.355zm-3.512-5.627h-3.926c-2.1 0-3.034.935-3.034 3.031v13.461c0 .81.263 1.069 1.073 1.069h.263c.81 0 1.073-.259 1.073-1.069v-5.236h4.546c4.039 0 5.922-1.788 5.922-5.628s-1.878-5.628-5.917-5.628z" class="cls-5" transform="translate(-1400.17 -704.484)"/>
        </g>
        <g id="Group_173" class="cls-2" transform="translate(30.527 24.671)">
            <path id="Path_384" d="M1421.827 716.093v1.845c0 1.5-.556 2.376-3.415 2.376-1.883 0-2.8-.682-2.8-2.084 0-1.538.927-2.137 3.278-2.137zm-3.415-7.652a14.064 14.064 0 0 0-2.9.269c-.654.142-.927.322-.927 1.065v.213a1.2 1.2 0 0 0 .137.635.574.574 0 0 0 .517.25 1.743 1.743 0 0 0 .41-.06 14.144 14.144 0 0 1 2.868-.286c2.351 0 3.307.65 3.307 2.243v1.42h-2.966c-3.8 0-5.571 1.283-5.571 4.038 0 2.672 1.834 4.143 5.151 4.143 3.951 0 5.707-1.343 5.707-4.355v-5.247c.004-2.911-1.87-4.328-5.733-4.328z" class="cls-5" transform="translate(-1413.29 -708.441)"/>
        </g>
        <g id="Group_174" class="cls-2" transform="translate(42.191 25.059)">
            <path id="Path_385" d="M1437.445 709.079a.983.983 0 0 0-.8-.24h-.234a1.084 1.084 0 0 0-1.278 1l-2.2 9.141c-.273 1.123-.654 1.329-1.317 1.329-.81 0-1.132-.193-1.454-1.333l-2.488-9.142a1.117 1.117 0 0 0-1.307-1h-.2a1 1 0 0 0-.81.243 1.007 1.007 0 0 0-.02.845l2.517 9.221c.468 1.765 1.034 3.225 3.132 3.225a3.352 3.352 0 0 0 1.054-.156c-.634 2-1.288 2.883-3.19 3.079-.39.032-.644.088-.781.276a.88.88 0 0 0-.059.724l.049.236c.117.546.312.886.927.886.059 0 .127 0 .2-.011 2.849-.186 4.38-1.72 5.268-5.295l3.054-12.192a1.024 1.024 0 0 0-.063-.836z" class="cls-4" transform="translate(-1425.246 -708.839)"/>
        </g>
        <g id="Group_175" class="cls-2" transform="translate(69.863 19.167)">
            <path id="Path_386" d="M1457.952 702.8h-3.629a.716.716 0 0 0-.712.716v.507h.254c1.639 0 2.244.27 2.244 1.764v2.123h1.844a.719.719 0 0 0 .722-.717v-3.676a.719.719 0 0 0-.723-.717z" class="cls-4" transform="translate(-1453.61 -702.799)"/>
        </g>
    </g>
</svg>
