<svg xmlns="http://www.w3.org/2000/svg" width="97.585" height="58.561" viewBox="0 0 97.585 58.561">
    <defs>
        <style>
            .cls-2{mix-blend-mode:luminosity;isolation:isolate}
        </style>
    </defs>
    <g id="Group_131" opacity="0.3" transform="translate(.5 .5)">
        <g id="Group_129" class="cls-2">
            <path id="Path_345" fill="none" stroke="#fff" d="M834.683 683.153H745.9a3.9 3.9 0 0 0-3.9 3.9v49.756a3.9 3.9 0 0 0 3.9 3.9h88.781a3.9 3.9 0 0 0 3.9-3.9v-49.754a3.9 3.9 0 0 0-3.898-3.902z" transform="translate(-742 -683.153)"/>
        </g>
        <g id="Group_130" class="cls-2" transform="translate(19.672 19.005)">
            <path id="Path_346" fill="#fff" d="M803.28 707.331a2.349 2.349 0 1 0-2.347-2.348 2.348 2.348 0 0 0 2.347 2.348zm-17.994 1.269a16.609 16.609 0 0 1-2.714 4.656V703.7l-4.917.972v17.313h4.917v-5.351a18.577 18.577 0 0 1 2.127 5.351h5.89a38.169 38.169 0 0 0-3.131-6.888 21.585 21.585 0 0 0 3.452-6.5zm12.927-.18c-4.4.141-6.64 2.117-6.64 6.045v7.525h4.806v-6.137c0-2.351.307-3.36 3.1-3.456v-3.908a6.615 6.615 0 0 0-1.266-.072zm-28.8 2.087c-.6-.039-2-.129-2-1.384 0-1.515 2.007-1.515 2.76-1.515a16.591 16.591 0 0 1 4.263.758s.683.24 1.264.487l.054.015v-4.148l-.074-.022a17.034 17.034 0 0 0-6.241-.991c-5.372 0-7.274 3.129-7.274 5.81 0 1.545.661 5.182 6.814 5.6.521.031 1.905.111 1.905 1.409 0 1.071-1.133 1.7-3.038 1.7a14.949 14.949 0 0 1-5.345-1.038v4.273a24.967 24.967 0 0 0 6.352.724c5.253 0 7.6-2.961 7.6-5.895.004-3.327-2.628-5.49-7.045-5.79zm31.487 11.48h4.766v-13.373H800.9zm13.74-17.433v17.433h4.76V703.7zm-6.955 0l4.762-.852v18.285h-4.762z" transform="translate(-762.164 -702.633)"/>
        </g>
    </g>
</svg>
