<svg xmlns="http://www.w3.org/2000/svg" width="97.585" height="58.561" viewBox="0 0 97.585 58.561">
    <defs>
        <style>
            .cls-2{mix-blend-mode:luminosity;isolation:isolate}.cls-4{fill:#fff;fill-rule:evenodd}
        </style>
    </defs>
    <g id="Group_167" opacity="0.3" transform="translate(.5 .5)">
        <g id="Group_161" class="cls-2">
            <path id="Path_373" fill="none" stroke="#fff" d="M1346.683 683.153H1257.9a3.9 3.9 0 0 0-3.9 3.9v49.756a3.9 3.9 0 0 0 3.9 3.9h88.78a3.9 3.9 0 0 0 3.9-3.9v-49.754a3.9 3.9 0 0 0-3.897-3.902z" transform="translate(-1254 -683.153)"/>
        </g>
        <g id="Group_162" class="cls-2" transform="translate(39.99 19.485)">
            <path id="Path_374" d="M1294.99 721.735l3-18.61h4.8l-2.995 18.61z" class="cls-4" transform="translate(-1294.99 -703.125)"/>
        </g>
        <g id="Group_163" class="cls-2" transform="translate(47.795 19.161)">
            <path id="Path_375" d="M1317.37 703.574a11.833 11.833 0 0 0-4.293-.781c-4.741 0-8.078 2.526-8.107 6.141-.029 2.675 2.38 4.167 4.2 5.056 1.863.911 2.488 1.495 2.488 2.309-.02 1.247-1.493 1.818-2.878 1.818a9.636 9.636 0 0 1-4.517-.976l-.615-.3-.664 4.166a14.438 14.438 0 0 0 5.337.991c5.044 0 8.312-2.495 8.351-6.356.02-2.121-1.259-3.729-4.029-5.056-1.678-.863-2.7-1.435-2.693-2.308 0-.774.868-1.6 2.751-1.6a8.414 8.414 0 0 1 3.59.715l.429.213z" class="cls-4" transform="translate(-1302.99 -702.793)"/>
        </g>
        <g id="Group_164" class="cls-2" transform="translate(61.142 19.504)">
            <path id="Path_376" fill="#fff" d="M1324.094 715.137c.39-1.069 1.912-5.2 1.912-5.2-.029.049.39-1.078.634-1.776l.322 1.6s.917 4.442 1.112 5.372zm5.912-11.992h-3.706a2.356 2.356 0 0 0-2.507 1.542l-7.122 17.054h5.034l1-2.8c.556 0 5.444.01 6.146.01.146.649.585 2.787.585 2.787h4.449z" transform="translate(-1316.67 -703.145)"/>
        </g>
        <g id="Group_165" class="cls-2" transform="translate(24.127 19.501)">
            <path id="Path_377" d="M1290.574 703.142l-4.693 12.687-.507-2.579a14.315 14.315 0 0 0-6.644-7.806l4.293 16.275h5.083l7.551-18.574z" class="cls-4" transform="translate(-1278.73 -703.142)"/>
        </g>
        <g id="Group_166" class="cls-2" transform="translate(19.122 19.489)">
            <path id="Path_378" d="M1281.4 703.129h-7.736l-.059.385c6.02 1.542 10 5.263 11.649 9.735l-1.678-8.55a2.015 2.015 0 0 0-2.176-1.57z" class="cls-4" transform="translate(-1273.6 -703.129)"/>
        </g>
    </g>
</svg>
