<svg xmlns="http://www.w3.org/2000/svg" width="97.585" height="58.561" viewBox="0 0 97.585 58.561">
    <defs>
        <style>
            .cls-2{mix-blend-mode:luminosity;isolation:isolate}
        </style>
    </defs>
    <g id="Group_134" opacity="0.3" transform="translate(.5 .5)">
        <g id="Group_132" class="cls-2">
            <path id="Path_347" fill="none" stroke="#fff" d="M962.683 683.153H873.9a3.9 3.9 0 0 0-3.9 3.9v49.756a3.9 3.9 0 0 0 3.9 3.9h88.781a3.9 3.9 0 0 0 3.9-3.9v-49.754a3.9 3.9 0 0 0-3.898-3.902z" transform="translate(-870 -683.153)"/>
        </g>
        <g id="Group_133" class="cls-2" transform="translate(8.954 20.004)">
            <path id="Path_348" fill="#fff" d="M904.333 703.657c-2.28 0-3.581.923-3.581 2.544a1.978 1.978 0 0 0 1.62 2.089l2.188.64c.292.086.526.248.526.539a.685.685 0 0 1-.753.64.71.71 0 0 1-.6-.256 1.019 1.019 0 0 1-.171-.6h-2.956c0 2.031 1.73 2.615 3.61 2.615 2.2 0 3.752-.8 3.752-2.714a2.059 2.059 0 0 0-1.407-2.047 21.905 21.905 0 0 0-2.473-.725c-.325-.1-.511-.217-.511-.5 0-.238.213-.455.71-.455a.6.6 0 0 1 .682.654h2.772c.003-1.809-1.462-2.424-3.408-2.424zm42.608.057v17.325h.98v-17.325zm9.877.057a1.038 1.038 0 1 0 0 2.075 1.038 1.038 0 0 0 0-2.075zm-77.64.1l1.691 7.8h3.354l.725-5.06h.015l.725 5.06h3.353l1.692-7.8h-2.773l-.654 4.9h-.028l-.725-4.9h-3.2l-.725 4.9h-.015l-.668-4.9zm13.444 0v7.8h6.026v-2.031h-3.07v-.881h2.743v-2.032h-2.743v-.827h2.971v-2.032zm17.111 0v2.089h1.934v5.713h3.084v-5.713h1.933v-2.089zm9.039 0v7.8h6.04v-2.031h-3.069v-.881h2.742v-2.032h-2.742v-.827h2.97v-2.032zm8.329 0v7.8h3.027v-2.785h.355c.5 0 .688.151.753.54a19.278 19.278 0 0 0 .383 2.245h3.027c-.356-1.179-.325-2.286-.5-2.956a1.3 1.3 0 0 0-1.322-1v-.014a1.749 1.749 0 0 0 1.549-1.862c0-1.47-.982-1.976-2.658-1.976zm9.706 0v7.8h2.5v-4.761h.028l1.649 4.761h3.716v-7.8h-2.52v4.718h-.015l-1.649-4.718zm17.126 0v17.139h.98v-17.139zm2.885.028a.872.872 0 0 1 .867.909.857.857 0 0 1-.867.9.866.866 0 0 1-.881-.9.881.881 0 0 1 .881-.908zm-.383.327v1.165h.141v-.54h.256l.328.54h.17l-.341-.54c.206-.006.355-.085.355-.313 0-.191-.1-.312-.413-.312zm.141.1h.327c.143 0 .285.019.285.2 0 .236-.234.213-.4.213h-.214zm-26.448 1.322h.284c.6 0 1 .109 1 .682s-.429.8-1.023.8h-.256zm.312 7.347c-2.691 0-4.036 1.676-4.036 4.107s1.345 4.107 4.036 4.107 4.022-1.675 4.022-4.107-1.331-4.107-4.022-4.107zm-29.944.2v5.187c0 1.88 1.353 2.828 3.709 2.828s3.709-.948 3.709-2.828v-5.187h-3.1v5.06c0 .616-.287.853-.611.853s-.612-.237-.612-.853v-5.06zm9.977 0V721h2.515v-4.746H913l1.651 4.746h3.709v-7.8h-2.5v4.733h-.028l-1.649-4.733zm10.5 0V721h3.1v-7.8zm15.832 0V721h2.5v-4.746h.028l1.653 4.746h3.714v-7.8h-2.52v4.733h-.015l-1.649-4.733zm-6.367 1.833c.5 0 .824.314.824 2.075 0 1.8-.349 2.075-.824 2.075s-.838-.27-.838-2.075c0-1.762.344-2.076.84-2.076z" transform="translate(-879.178 -703.657)"/>
        </g>
    </g>
</svg>
