<svg xmlns="http://www.w3.org/2000/svg" width="18" height="24" viewBox="0 0 18 24">
    <path fill="#fff" fill-rule="evenodd" d="M78 380.681v10.213a1.011 1.011 0 0 1-1 1.021h-1v3.064a1 1 0 1 1-2 0v-3.064h-4v3.064a1 1 0 1 1-2 0v-3.064h-1a1.011 1.011 0 0 1-1-1.021v-10.213zm-14 0a1.011 1.011 0 0 1 1 1.021v5.107a1 1 0 1 1-2 0V381.7a1.011 1.011 0 0 1 1-1.019zm16 0a1.011 1.011 0 0 1 1 1.021v5.107a1 1 0 1 1-2 0V381.7a1.011 1.011 0 0 1 1-1.019zm-4.416-8.453a.492.492 0 0 1 .693-.142.517.517 0 0 1 .139.708l-1.135 1.739A6.153 6.153 0 0 1 78 379.66H66a6.153 6.153 0 0 1 2.719-5.127l-1.135-1.739a.517.517 0 0 1 .139-.708.493.493 0 0 1 .693.142l1.186 1.817a5.861 5.861 0 0 1 4.8 0z" transform="translate(-63 -372)"/>
</svg>
