<svg xmlns="http://www.w3.org/2000/svg" width="20" height="24" viewBox="0 0 20 24">
    <path fill="#fff" fill-rule="evenodd" d="M15.119 375.783a6.176 6.176 0 0 1 4.721 2.517l.734.939-1.028.579a3.527 3.527 0 0 0-1.819 3.388 3.641 3.641 0 0 0 2.293 3.2l.98.38-.43.98a16.212 16.212 0 0 1-1.413 2.7c-1.1 1.73-2.494 3.5-4.421 3.518-1.6.011-1.815-.808-3.527-.891-1.567.011-1.921.895-3.536.895h-.038c-1.972-.018-3.365-1.8-4.358-3.356C.77 386.724.271 381.79 2.09 378.913a6.322 6.322 0 0 1 5.146-3.129 6.915 6.915 0 0 1 2.5.543 4.358 4.358 0 0 0 1.452.362 3.474 3.474 0 0 0 1.247-.326 6.87 6.87 0 0 1 2.684-.58zm-.3-5.783a4.462 4.462 0 0 1-.947 3.246 3.855 3.855 0 0 1-3 1.564 4.142 4.142 0 0 1 .973-3.166A4.569 4.569 0 0 1 14.822 370z" transform="translate(-1 -370)"/>
</svg>
