<svg xmlns="http://www.w3.org/2000/svg" width="11.161" height="11.089" viewBox="0 0 11.161 11.089">
    <g opacity="0.5">
        <path fill="#fff" d="M1420.695 123.172h-10.117a.473.473 0 0 0-.488.486v10.187a.462.462 0 0 0 .488.416h10.185a.478.478 0 0 0 .488-.485v-10.118a.592.592 0 0 0-.556-.486zm-7.346 9.425h-1.6v-5.267h1.668v5.27zm-.761-5.96a.994.994 0 0 1-.976-.97.971.971 0 1 1 1.941 0 1.105 1.105 0 0 1-.965.97zm6.927 5.96h-1.658v-2.564c0-.624 0-1.386-.839-1.386s-.966.693-.966 1.386v2.633h-1.668v-5.336h1.6v.694a1.685 1.685 0 0 1 1.522-.832c1.668 0 1.942 1.109 1.942 2.5v2.91z" transform="translate(-1410.09 -123.172)"/>
    </g>
</svg>
