<svg xmlns="http://www.w3.org/2000/svg" width="11.093" height="11.088" viewBox="0 0 11.093 11.088">
    <defs>
        <style>
            .cls-2{fill:#fff}
        </style>
    </defs>
    <g id="Group_181" opacity="0.5">
        <path id="Path_398" d="M1462.244 125.876a.665.665 0 1 0-.664-.665.662.662 0 0 0 .664.665z" class="cls-2" transform="translate(-1453.824 -122.513)"/>
        <path id="Path_399" d="M1459.251 130.847a2.772 2.772 0 1 1 2.771-2.772 2.772 2.772 0 0 1-2.771 2.772zm0-4.158a1.386 1.386 0 1 0 1.385 1.386 1.383 1.383 0 0 0-1.385-1.386z" class="cls-2" transform="translate(-1453.699 -122.531)"/>
        <path id="Path_400" d="M1461.952 133.55h-5.542a2.927 2.927 0 0 1-2.78-2.772v-5.544a2.928 2.928 0 0 1 2.78-2.772h5.542a2.919 2.919 0 0 1 2.771 2.772v5.544a2.919 2.919 0 0 1-2.771 2.772zm-5.542-9.7a1.563 1.563 0 0 0-1.385 1.385v5.544a1.543 1.543 0 0 0 1.385 1.386h5.542a1.573 1.573 0 0 0 1.385-1.386v-5.544a1.572 1.572 0 0 0-1.385-1.385z" class="cls-2" transform="translate(-1453.63 -122.462)"/>
    </g>
</svg>
