<svg xmlns="http://www.w3.org/2000/svg" id="Component_6_1" width="15.61" height="15.61" viewBox="0 0 15.61 15.61">
    <defs>
        <style>
            .cls-1{fill:#00b2ff}
        </style>
    </defs>
    <path id="Path_340" d="M1475.756 358h-3.9a5.861 5.861 0 0 0-5.854 5.854v5.854a1 1 0 0 0 .283.69.982.982 0 0 0 1.385 0 1 1 0 0 0 .283-.69v-5.854a3.9 3.9 0 0 1 3.9-3.9h3.9a3.9 3.9 0 0 1 3.9 3.9v5.854a1 1 0 0 0 .283.69.982.982 0 0 0 1.385 0 1 1 0 0 0 .283-.69v-5.854a5.861 5.861 0 0 0-5.854-5.854z" class="cls-1" transform="translate(-1466 -358)"/>
    <path id="Path_341" d="M1470.463 366a1.464 1.464 0 0 0-1.463 1.463v4.878a1.463 1.463 0 0 0 2.927 0v-4.878a1.464 1.464 0 0 0-1.464-1.463z" class="cls-1" transform="translate(-1466.073 -358.195)"/>
    <path id="Path_342" d="M1477.464 366a1.464 1.464 0 0 0-1.464 1.463v4.878a1.463 1.463 0 0 0 2.927 0v-4.878a1.464 1.464 0 0 0-1.463-1.463z" class="cls-1" transform="translate(-1466.244 -358.195)"/>
</svg>
