<svg xmlns="http://www.w3.org/2000/svg" width="11.093" height="9.009" viewBox="0 0 11.093 9.009">
    <g opacity="0.5">
        <path fill="#fff" d="M1336.093 124.922a4.207 4.207 0 0 1-1.317.347 1.973 1.973 0 0 0 .966-1.248 4.558 4.558 0 0 1-1.454.554 2.439 2.439 0 0 0-1.668-.693 2.3 2.3 0 0 0-2.215 2.287 1.041 1.041 0 0 0 .068.485 6.377 6.377 0 0 1-4.712-2.356 2.148 2.148 0 0 0-.273 1.179 2.269 2.269 0 0 0 1.034 1.871 2.88 2.88 0 0 1-1.034-.278 2.238 2.238 0 0 0 1.8 2.219 1.894 1.894 0 0 1-.624.069.855.855 0 0 1-.41-.069 2.244 2.244 0 0 0 2.146 1.593 4.407 4.407 0 0 1-2.839.971H1325a6.766 6.766 0 0 0 3.463 1.039 6.419 6.419 0 0 0 6.449-6.445v-.277a4.064 4.064 0 0 0 1.181-1.248z" transform="translate(-1325 -123.883)"/>
    </g>
</svg>
