<svg xmlns="http://www.w3.org/2000/svg" id="Component_12_1" width="15.61" height="15.61" viewBox="0 0 15.61 15.61">
    <defs>
        <style>
            .cls-1{fill:#fff}
        </style>
    </defs>
    <path id="Path_250" d="M1566.9 30.8a3.9 3.9 0 1 0-3.9-3.9 3.9 3.9 0 0 0 3.9 3.9z" class="cls-1" transform="translate(-1559.098 -23)"/>
    <path id="Path_251" d="M1574.61 36.122a2 2 0 0 0-.3-1.054 1.953 1.953 0 0 0-.829-.72 17.188 17.188 0 0 0-13.346 0 1.953 1.953 0 0 0-.829.72 2 2 0 0 0-.3 1.054v2.732h15.61z" class="cls-1" transform="translate(-1559 -23.244)"/>
</svg>
