<svg xmlns="http://www.w3.org/2000/svg" width="15.52" height="15.61" viewBox="0 0 15.52 15.61">
    <path fill="#00ff19" d="M1479.268 323.244A7.51 7.51 0 0 0 1473.8 321a7.691 7.691 0 0 0-6.634 11.61l-1.171 4 4.1-1.073a8.4 8.4 0 0 0 3.707.976 7.724 7.724 0 0 0 7.707-7.707 7.357 7.357 0 0 0-2.241-5.562zm-1.658 8.293a1.809 1.809 0 0 1-1.268.878 4.344 4.344 0 0 1-2.341-.488 9.259 9.259 0 0 1-3.317-2.927 3.715 3.715 0 0 1-.781-1.951 2.4 2.4 0 0 1 .683-1.659.934.934 0 0 1 1.366.1 7.513 7.513 0 0 0 .585 1.463.531.531 0 0 1-.2.683c-.1 0-.585.39-.39.683a6.6 6.6 0 0 0 1.073 1.366 5.456 5.456 0 0 0 1.561.976c.2.1.293.1.39-.1a5.409 5.409 0 0 0 .585-.78.241.241 0 0 1 .39-.1c.1.1 1.171.488 1.366.585.2.2.39.2.39.293.098.1.098.49-.092.978z" transform="translate(-1466 -321)"/>
</svg>
