<svg xmlns="http://www.w3.org/2000/svg" id="Component_1_1" width="150.243" height="57.561" viewBox="0 0 150.243 57.561">
    <defs>
        <style>
            .cls-1{fill:#fff}
        </style>
    </defs>
    <path id="Path_329" d="M508.1 130.226l10.52-14.326h2.98l-1.493-6.476-8.925 6.476h2.618l-5.772 7.9-6.1-7.9h-17.261l14.988 19.382L481 160.718l3.323-2.207a39.458 39.458 0 0 0 10.039-9.558l10.12-13.78-11.91-15.431H500z" class="cls-1" transform="translate(-481 -103.157)"/>
    <path id="Path_330" d="M537.781 109.447l-1.5-6.447-8.919 6.447h2.629l-18.83 25.661 11.95 15.478h-7.431l-5.69-7.369-2.443-3.168-2.4 3.266.006.006-8.18 11.14h4.735l5.882-7.977 6.162 7.977h17.261l-14.983-19.41 18.783-25.6z" class="cls-1" transform="translate(-481.39 -103)"/>
    <path id="Path_331" d="M600.565 127v4.86h10.756v4.449h-10.756V145H595.6v-22.448h17.174V127z" class="cls-1" transform="translate(-483.795 -103.477)"/>
    <path id="Path_332" d="M628.659 144.964l-5.06-7.687-5.09 7.687h-5.637l7.859-11.4-7.539-11.006h5.8l4.734 7.264 4.769-7.264h5.637l-7.532 10.948 7.864 11.463z" class="cls-1" transform="translate(-484.217 -103.477)"/>
    <path id="Path_333" d="M538.365 126.705v-4.153h4.943v4.153zm.122 18.259v-16.446h4.7v16.446z" class="cls-1" transform="translate(-482.399 -103.477)"/>
    <path id="Path_334" d="M558.423 144.964v-2.317a7.331 7.331 0 0 1-2.087 1.905 5.82 5.82 0 0 1-3.078.747 7.362 7.362 0 0 1-2.816-.579 6.932 6.932 0 0 1-2.414-1.646 8.087 8.087 0 0 1-1.685-2.67 9.705 9.705 0 0 1-.636-3.643v-.061a9.7 9.7 0 0 1 .636-3.643 8.268 8.268 0 0 1 1.667-2.671 6.843 6.843 0 0 1 2.4-1.645 7.44 7.44 0 0 1 2.845-.55 6 6 0 0 1 3.107.777 8.2 8.2 0 0 1 2.058 1.708v-8.109h4.7v22.4zm.059-8.243a5.23 5.23 0 0 0-.321-1.871 4.617 4.617 0 0 0-.868-1.454 3.852 3.852 0 0 0-4.39-.927 3.859 3.859 0 0 0-1.282.927 4.5 4.5 0 0 0-.887 1.436 5.218 5.218 0 0 0-.32 1.889v.063a5.228 5.228 0 0 0 .32 1.871 4.387 4.387 0 0 0 .887 1.454 3.878 3.878 0 0 0 4.407.927 3.646 3.646 0 0 0 1.265-.927 4.561 4.561 0 0 0 .868-1.454 5.23 5.23 0 0 0 .321-1.871z" class="cls-1" transform="translate(-482.578 -103.477)"/>
    <path id="Path_335" d="M583.1 140.257a8.478 8.478 0 0 1-1.889 2.723 8.953 8.953 0 0 1-2.845 1.842 9.883 9.883 0 0 1-7.147.017 8.651 8.651 0 0 1-2.827-1.83 8.35 8.35 0 0 1-2.541-6.024v-.058a8.2 8.2 0 0 1 .682-3.337 8.41 8.41 0 0 1 1.883-2.717 8.97 8.97 0 0 1 2.845-1.848 9.923 9.923 0 0 1 7.147 0 8.679 8.679 0 0 1 2.821 1.82 8.4 8.4 0 0 1 1.871 2.7 8.24 8.24 0 0 1 .676 3.331v.064a8.257 8.257 0 0 1-.676 3.317zm-3.964-3.331a4.783 4.783 0 0 0-.309-1.738 4.216 4.216 0 0 0-.9-1.449 4.374 4.374 0 0 0-1.387-1 4.233 4.233 0 0 0-1.749-.365 4.368 4.368 0 0 0-1.807.353 3.966 3.966 0 0 0-1.347.968 4.3 4.3 0 0 0-.851 1.424 5.17 5.17 0 0 0-.292 1.739v.063a4.783 4.783 0 0 0 .309 1.738 4.416 4.416 0 0 0 2.273 2.439 4.112 4.112 0 0 0 1.749.371 4.335 4.335 0 0 0 1.807-.353 4.037 4.037 0 0 0 1.347-.968 4.271 4.271 0 0 0 .851-1.43 4.98 4.98 0 0 0 .292-1.739z" class="cls-1" transform="translate(-483.069 -103.619)"/>
    <path id="Path_336" d="M586.509 144.964v-22.412h4.7v22.412z" class="cls-1" transform="translate(-483.573 -103.477)"/>
</svg>
