<svg xmlns="http://www.w3.org/2000/svg" width="105.083" height="40.416" viewBox="0 0 105.083 40.416">
    <defs>
        <style>
            .cls-1{fill:#e41469}.cls-2{fill:#fff}
        </style>
    </defs>
    <g id="Group_226" transform="translate(-378 -14.146)">
        <g id="Component_7_1" transform="translate(378 14.146)">
            <path id="Path_237" d="M402.951 31.961l7.36-10.058h2.089l-1.044-4.547-6.243 4.544h1.827l-4.04 5.546-4.262-5.546h-12.074l10.483 13.609L384 53.371l2.324-1.55a27.647 27.647 0 0 0 7.021-6.711l7.079-9.676-8.331-10.834h5.2z" class="cls-1" transform="translate(-384 -12.955)"/>
            <path id="Path_238" d="M423.328 17.527L422.28 13l-6.238 4.527h1.839l-13.17 18.018 8.358 10.868h-5.2l-3.979-5.174-1.709-2.225-1.676 2.294-5.72 7.821h3.31l4.114-5.6 4.309 5.6H418.6L408.115 35.5l13.137-17.977z" class="cls-1" transform="translate(-383.888 -13)"/>
            <path id="Path_239" d="M464.865 29.379v3.412h7.522v3.124h-7.522v6.1h-3.474V26.256H473.4v3.124z" class="cls-1" transform="translate(-383.194 -12.862)"/>
            <path id="Path_240" d="M484.1 41.992l-3.539-5.4-3.56 5.4h-3.943l5.5-8-5.272-7.728h4.057l3.311 5.1 3.335-5.1h3.943l-5.272 7.687 5.5 8.049z" class="cls-1" transform="translate(-383.072 -12.862)"/>
            <path id="Path_241" d="M422.74 29.172v-2.916h3.46v2.916zm.085 12.82V30.445h3.287v11.547z" class="cls-2" transform="translate(-383.597 -12.862)"/>
            <path id="Path_242" d="M436.592 41.992v-1.627a5.122 5.122 0 0 1-1.459 1.338 4.058 4.058 0 0 1-2.153.525 5.133 5.133 0 0 1-1.969-.407 4.85 4.85 0 0 1-1.688-1.155 5.7 5.7 0 0 1-1.178-1.875 6.849 6.849 0 0 1-.445-2.558v-.045a6.848 6.848 0 0 1 .445-2.558 5.82 5.82 0 0 1 1.166-1.875 4.78 4.78 0 0 1 1.68-1.155 5.174 5.174 0 0 1 1.989-.386 4.178 4.178 0 0 1 2.173.545 5.72 5.72 0 0 1 1.439 1.2v-5.695h3.287v15.728zm.041-5.788a3.709 3.709 0 0 0-.224-1.314 3.275 3.275 0 0 0-.607-1.021 2.688 2.688 0 0 0-3.071-.651 2.694 2.694 0 0 0-.9.651 3.139 3.139 0 0 0-.619 1.009 3.664 3.664 0 0 0-.224 1.326v.045a3.666 3.666 0 0 0 .224 1.314 3.084 3.084 0 0 0 .619 1.021 2.65 2.65 0 0 0 .9.651 2.591 2.591 0 0 0 1.092.228 2.618 2.618 0 0 0 1.093-.228 2.565 2.565 0 0 0 .885-.651 3.225 3.225 0 0 0 .607-1.021 3.709 3.709 0 0 0 .224-1.314z" class="cls-2" transform="translate(-383.546 -12.862)"/>
            <path id="Path_243" d="M453.367 38.546a5.951 5.951 0 0 1-1.321 1.912 6.254 6.254 0 0 1-1.991 1.293 6.5 6.5 0 0 1-2.511.476 6.585 6.585 0 0 1-2.488-.464 6.045 6.045 0 0 1-1.977-1.285 5.868 5.868 0 0 1-1.777-4.23v-.041a5.784 5.784 0 0 1 .477-2.343 5.9 5.9 0 0 1 1.317-1.908 6.261 6.261 0 0 1 1.99-1.3 6.913 6.913 0 0 1 5 0 6.072 6.072 0 0 1 1.973 1.277 5.914 5.914 0 0 1 1.309 1.9 5.817 5.817 0 0 1 .473 2.339v.045a5.812 5.812 0 0 1-.474 2.329zm-2.773-2.339a3.357 3.357 0 0 0-.216-1.22 2.96 2.96 0 0 0-.627-1.017 3.046 3.046 0 0 0-.971-.7 2.942 2.942 0 0 0-1.223-.256 3.034 3.034 0 0 0-1.264.248 2.761 2.761 0 0 0-.942.679 3.033 3.033 0 0 0-.6 1 3.661 3.661 0 0 0-.2 1.22v.039a3.355 3.355 0 0 0 .216 1.22 3.093 3.093 0 0 0 1.589 1.712 2.862 2.862 0 0 0 1.224.26 3.018 3.018 0 0 0 1.264-.248 2.817 2.817 0 0 0 .942-.679 2.991 2.991 0 0 0 .6-1 3.511 3.511 0 0 0 .2-1.22z" class="cls-2" transform="translate(-383.403 -12.821)"/>
            <path id="Path_244" d="M455.253 41.992V26.256h3.286v15.736z" class="cls-2" transform="translate(-383.259 -12.862)"/>
        </g>
    </g>
</svg>
