<svg xmlns="http://www.w3.org/2000/svg" width="174.606" height="23.828" viewBox="0 0 174.606 23.828">
    <path fill="#cc0505" d="M460.225 251.984a1.441 1.441 0 0 1-.38-2.831l16.391-4.491 11.519-10.34a1.437 1.437 0 0 1 1.977.052l5.284 5.255 14.021 9.473h5.892l16.382-20.4a1.433 1.433 0 0 1 1.712-.412l8.368 3.739 25.609-.48a1.386 1.386 0 0 1 1.378.931l4.287 11.346 9.637-6.731a1.382 1.382 0 0 1 1-.248l14.653 1.793a1.7 1.7 0 0 1 .323.075l13.116 4.808 14.537-2.015a1.453 1.453 0 0 1 1.213.409l5.826 5.823a1.441 1.441 0 0 1-2.038 2.038l-5.318-5.316-14.183 1.966a1.476 1.476 0 0 1-.692-.072l-13.3-4.877-13.939-1.706-10.7 7.475a1.474 1.474 0 0 1-1.251.2 1.452 1.452 0 0 1-.922-.868l-4.583-12.125-24.912.461a1.1 1.1 0 0 1-.617-.127l-7.648-3.413-16.117 20.072a1.447 1.447 0 0 1-1.124.539h-7.028a1.447 1.447 0 0 1-.807-.248l-14.592-9.893-4.526-4.471-10.761 9.663a1.423 1.423 0 0 1-.582.317l-16.72 4.581a1.459 1.459 0 0 1-.385.048z" transform="translate(-458.783 -228.156)"/>
</svg>
