<svg xmlns="http://www.w3.org/2000/svg" width="36.985" height="28.455" viewBox="0 0 36.985 28.455">
    <defs>
        <clipPath id="clip-path">
            <circle id="Ellipse_2" cx="10" cy="10" r="10" fill="none"/>
        </clipPath>
        <style>
            .cls-2{fill:#2b3990}.cls-3{fill:#f9ed4a}.cls-5{fill:#bd1c24}.cls-6{fill:#fff}
        </style>
    </defs>
    <g id="Component_8_1">
        <g id="Group_191" transform="translate(-6263.886 -5883.382)">
            <circle id="Ellipse_1" cx="10.06" cy="10.06" r="10.06" class="cls-2" transform="rotate(-45 10250.987 -4612.375)"/>
            <g id="Group_3" transform="translate(6270.09 5889.517)">
                <path id="Path_16" d="M1831.854 421.557l.277.562.62.09-.449.437.106.618-.555-.292-.555.292.106-.618-.449-.437.62-.09z" class="cls-3" transform="translate(-1823.831 -421.557)"/>
                <path id="Path_17" d="M1831.854 900.891l.277.562.62.09-.449.437.106.618-.555-.292-.555.292.106-.618-.449-.437.62-.09z" class="cls-3" transform="translate(-1823.831 -886.639)"/>
                <path id="Path_18" d="M2071.52 661.224l.277.562.62.09-.449.438.106.617-.555-.291-.555.291.106-.617-.449-.437.62-.09z" class="cls-3" transform="translate(-2056.371 -654.098)"/>
                <path id="Path_19" d="M1592.185 661.224l.277.562.62.09-.448.437.106.618-.555-.292-.555.292.106-.618-.449-.437.62-.09z" class="cls-3" transform="translate(-1591.288 -654.098)"/>
                <path id="Path_20" d="M1712.232 457.513l.521.348.582-.232-.17.6.4.482-.626.025-.334.53-.217-.588-.607-.154.492-.388z" class="cls-3" transform="translate(-1708.198 -456.444)"/>
                <path id="Path_21" d="M1951.894 872.627l.521.348.582-.232-.17.6.4.482-.626.025-.335.53-.217-.588-.607-.154.492-.388z" class="cls-3" transform="translate(-1940.735 -859.216)"/>
                <path id="Path_22" d="M2039.621 545.237l.521.348.582-.232-.17.6.4.482-.626.025-.334.53-.217-.588-.607-.155.492-.388z" class="cls-3" transform="translate(-2025.853 -541.56)"/>
                <path id="Path_23" d="M1624.506 784.9l.521.348.582-.232-.17.6.4.482-.626.025-.334.53-.217-.588-.607-.154.492-.388z" class="cls-3" transform="translate(-1623.081 -774.1)"/>
                <path id="Path_24" d="M1626.457 541.889l.625.041.388-.492.155.607.588.217-.53.334-.025.626-.482-.4-.6.17.232-.582z" class="cls-3" transform="translate(-1625.411 -537.873)"/>
                <path id="Path_25" d="M2041.57 781.557l.625.041.388-.492.154.607.588.217-.529.334-.025.626-.482-.4-.6.17.232-.582z" class="cls-3" transform="translate(-2028.182 -770.415)"/>
                <path id="Path_26" d="M1953.846 454.167l.625.041.388-.492.154.607.588.217-.53.335-.025.626-.482-.4-.6.17.232-.582z" class="cls-3" transform="translate(-1943.066 -452.76)"/>
                <path id="Path_27" d="M1714.179 869.281l.625.041.388-.492.154.607.588.217-.53.335-.025.626-.482-.4-.6.17.232-.582z" class="cls-3" transform="translate(-1710.525 -855.531)"/>
            </g>
        </g>
        <g id="Group_192" transform="translate(16.985 4.162)">
            <g id="Group_6" clip-path="url(#clip-path)">
                <g id="Group_5" transform="translate(-7.671 -.03)">
                    <path id="Rectangle_1" d="M0 0H17.671V10.774H0z" class="cls-2"/>
                    <path id="Rectangle_2" d="M0 0H26.507V1.488H0z" class="cls-5" transform="translate(17.671)"/>
                    <path id="Rectangle_3" d="M0 0H26.507V1.488H0z" class="cls-6" transform="translate(17.671 1.548)"/>
                    <path id="Rectangle_4" d="M0 0H26.507V1.488H0z" class="cls-5" transform="translate(17.671 3.095)"/>
                    <path id="Rectangle_5" d="M0 0H26.507V1.488H0z" class="cls-6" transform="translate(17.671 4.643)"/>
                    <path id="Rectangle_6" d="M0 0H26.507V1.488H0z" class="cls-5" transform="translate(17.671 6.191)"/>
                    <path id="Rectangle_7" d="M0 0H26.507V1.488H0z" class="cls-6" transform="translate(17.671 7.738)"/>
                    <path id="Rectangle_8" d="M0 0H26.507V1.488H0z" class="cls-5" transform="translate(17.671 9.286)"/>
                    <path id="Rectangle_9" d="M0 0H44.178V1.488H0z" class="cls-6" transform="translate(0 10.774)"/>
                    <path id="Rectangle_10" d="M0 0H44.178V1.488H0z" class="cls-5" transform="translate(0 12.322)"/>
                    <path id="Rectangle_11" d="M0 0H44.178V1.488H0z" class="cls-6" transform="translate(0 13.869)"/>
                    <path id="Rectangle_12" d="M0 0H44.178V1.488H0z" class="cls-5" transform="translate(0 15.417)"/>
                    <path id="Rectangle_13" d="M0 0H44.178V1.488H0z" class="cls-6" transform="translate(0 16.965)"/>
                    <path id="Rectangle_14" d="M0 0H44.178V1.488H0z" class="cls-5" transform="translate(0 18.512)"/>
                    <path id="Path_28" d="M-118.979 1659.387l.189.413.423.066-.306.322.072.454-.378-.214-.378.214.072-.454-.306-.322.423-.066z" class="cls-6" transform="translate(120.394 -1658.897)"/>
                    <path id="Path_29" d="M-68.627 1695.6l.189.413.423.066-.306.322.072.454-.378-.214-.378.214.072-.454-.306-.322.423-.066z" class="cls-6" transform="translate(71.526 -1694.044)"/>
                    <path id="Path_30" d="M-18.275 1659.387l.189.413.423.066-.306.322.072.454-.378-.214-.378.214.072-.454-.306-.322.423-.066z" class="cls-6" transform="translate(22.658 -1658.897)"/>
                    <path id="Path_31" d="M32.08 1695.6l.189.413.423.066-.306.322.072.454-.378-.214-.378.214.072-.454-.306-.322.423-.066z" class="cls-6" transform="translate(-26.213 -1694.044)"/>
                    <path id="Path_32" d="M82.432 1659.387l.189.413.423.066-.306.322.072.454-.378-.214-.378.214.072-.454-.306-.322.423-.066z" class="cls-6" transform="translate(-75.081 -1658.897)"/>
                    <path id="Path_33" d="M132.785 1695.6l.189.413.423.066-.306.322.072.454-.378-.214-.378.214.072-.454-.306-.322.423-.066z" class="cls-6" transform="translate(-123.949 -1694.044)"/>
                    <path id="Path_34" d="M183.137 1659.387l.189.413.423.066-.306.322.072.454-.378-.214-.378.214.072-.454-.306-.322.423-.066z" class="cls-6" transform="translate(-172.817 -1658.897)"/>
                    <path id="Path_35" d="M233.489 1695.6l.189.413.423.066-.306.322.072.454-.378-.214-.378.214.072-.454-.306-.322.423-.066z" class="cls-6" transform="translate(-221.685 -1694.044)"/>
                    <path id="Path_36" d="M283.842 1659.387l.189.413.423.066-.306.322.072.454-.378-.214-.378.214.072-.454-.306-.322.423-.066z" class="cls-6" transform="translate(-270.554 -1658.897)"/>
                    <path id="Path_37" d="M334.194 1695.6l.189.413.423.066-.306.322.072.454-.378-.214-.378.214.072-.454-.306-.322.423-.066z" class="cls-6" transform="translate(-319.422 -1694.044)"/>
                    <path id="Path_38" d="M384.546 1659.387l.189.413.423.066-.306.322.072.454-.378-.214-.378.214.072-.454-.306-.322.423-.066z" class="cls-6" transform="translate(-368.29 -1658.897)"/>
                    <path id="Path_39" d="M-118.979 1731.814l.189.413.423.066-.306.322.072.454-.378-.214-.378.214.072-.454-.306-.322.423-.066z" class="cls-6" transform="translate(120.394 -1729.19)"/>
                    <path id="Path_40" d="M-68.627 1768.03l.189.413.423.066-.306.322.072.454-.378-.214-.378.214.072-.454-.306-.322.423-.066z" class="cls-6" transform="translate(71.526 -1764.338)"/>
                    <path id="Path_41" d="M-18.275 1731.814l.189.413.423.066-.306.322.072.454-.378-.214-.378.214.072-.454-.306-.322.423-.066z" class="cls-6" transform="translate(22.658 -1729.19)"/>
                    <path id="Path_42" d="M32.08 1768.03l.189.413.423.066-.306.322.072.454-.378-.214-.378.214.072-.454-.306-.322.423-.066z" class="cls-6" transform="translate(-26.213 -1764.338)"/>
                    <path id="Path_43" d="M82.432 1731.814l.189.413.423.066-.306.322.072.454-.378-.214-.378.214.072-.454-.306-.322.423-.066z" class="cls-6" transform="translate(-75.081 -1729.19)"/>
                    <path id="Path_44" d="M132.785 1768.03l.189.413.423.066-.306.322.072.454-.378-.214-.378.214.072-.454-.306-.322.423-.066z" class="cls-6" transform="translate(-123.949 -1764.338)"/>
                    <path id="Path_45" d="M183.137 1731.814l.189.413.423.066-.306.322.072.454-.378-.214-.378.214.072-.454-.306-.322.423-.066z" class="cls-6" transform="translate(-172.817 -1729.19)"/>
                    <path id="Path_46" d="M233.489 1768.03l.189.413.423.066-.306.322.072.454-.378-.214-.378.214.072-.454-.306-.322.423-.066z" class="cls-6" transform="translate(-221.685 -1764.338)"/>
                    <path id="Path_47" d="M283.842 1731.814l.189.413.423.066-.306.322.072.454-.378-.214-.378.214.072-.454-.306-.322.423-.066z" class="cls-6" transform="translate(-270.554 -1729.19)"/>
                    <path id="Path_48" d="M334.194 1768.03l.189.413.423.066-.306.322.072.454-.378-.214-.378.214.072-.454-.306-.322.423-.066z" class="cls-6" transform="translate(-319.422 -1764.338)"/>
                    <path id="Path_49" d="M384.546 1731.814l.189.413.423.066-.306.322.072.454-.378-.214-.378.214.072-.454-.306-.322.423-.066z" class="cls-6" transform="translate(-368.29 -1729.19)"/>
                    <path id="Path_50" d="M-118.979 1804.243l.189.413.423.066-.306.322.072.454-.378-.214-.378.214.072-.454-.306-.322.423-.066z" class="cls-6" transform="translate(120.394 -1799.484)"/>
                    <path id="Path_51" d="M-68.627 1840.458l.189.413.423.066-.306.322.072.454-.378-.214-.378.214.072-.454-.306-.322.423-.066z" class="cls-6" transform="translate(71.526 -1834.631)"/>
                    <path id="Path_52" d="M-18.275 1804.243l.189.413.423.066-.306.322.072.454-.378-.214-.378.214.072-.454-.306-.322.423-.066z" class="cls-6" transform="translate(22.658 -1799.484)"/>
                    <path id="Path_53" d="M32.08 1840.458l.189.413.423.066-.306.322.072.454-.378-.214-.378.214.072-.454-.306-.322.423-.066z" class="cls-6" transform="translate(-26.213 -1834.631)"/>
                    <path id="Path_54" d="M82.432 1804.243l.189.413.423.066-.306.322.072.454-.378-.214-.378.214.072-.454-.306-.322.423-.066z" class="cls-6" transform="translate(-75.081 -1799.484)"/>
                    <path id="Path_55" d="M132.785 1840.458l.189.413.423.066-.306.322.072.454-.378-.214-.378.214.072-.454-.306-.322.423-.066z" class="cls-6" transform="translate(-123.949 -1834.631)"/>
                    <path id="Path_56" d="M183.137 1804.243l.189.413.423.066-.306.322.072.454-.378-.214-.378.214.072-.454-.306-.322.423-.066z" class="cls-6" transform="translate(-172.817 -1799.484)"/>
                    <path id="Path_57" d="M233.489 1840.458l.189.413.423.066-.306.322.072.454-.378-.214-.378.214.072-.454-.306-.322.423-.066z" class="cls-6" transform="translate(-221.685 -1834.631)"/>
                    <path id="Path_58" d="M283.842 1804.243l.189.413.423.066-.306.322.072.454-.378-.214-.378.214.072-.454-.306-.322.423-.066z" class="cls-6" transform="translate(-270.554 -1799.484)"/>
                    <path id="Path_59" d="M334.194 1840.458l.189.413.423.066-.306.322.072.454-.378-.214-.378.214.072-.454-.306-.322.423-.066z" class="cls-6" transform="translate(-319.422 -1834.631)"/>
                    <path id="Path_60" d="M384.546 1804.243l.189.413.423.066-.306.322.072.454-.378-.214-.378.214.072-.454-.306-.322.423-.066z" class="cls-6" transform="translate(-368.29 -1799.484)"/>
                    <path id="Path_61" d="M-118.979 1876.672l.189.413.423.066-.306.322.072.454-.378-.214-.378.214.072-.454-.306-.322.423-.066z" class="cls-6" transform="translate(120.394 -1869.778)"/>
                    <path id="Path_62" d="M-68.627 1912.887l.189.413.423.066-.306.322.072.454-.378-.214-.378.214.072-.454-.306-.322.423-.066z" class="cls-6" transform="translate(71.526 -1904.925)"/>
                    <path id="Path_63" d="M-18.275 1876.672l.189.413.423.066-.306.322.072.454-.378-.214-.378.214.072-.454-.306-.322.423-.066z" class="cls-6" transform="translate(22.658 -1869.778)"/>
                    <path id="Path_64" d="M32.08 1912.887l.189.413.423.066-.306.322.072.454-.378-.214-.378.214.072-.454-.306-.322.423-.066z" class="cls-6" transform="translate(-26.213 -1904.925)"/>
                    <path id="Path_65" d="M82.432 1876.672l.189.413.423.066-.306.322.072.454-.378-.214-.378.214.072-.454-.306-.322.423-.066z" class="cls-6" transform="translate(-75.081 -1869.778)"/>
                    <path id="Path_66" d="M132.785 1912.887l.189.413.423.066-.306.322.072.454-.378-.214-.378.214.072-.454-.306-.322.423-.066z" class="cls-6" transform="translate(-123.949 -1904.925)"/>
                    <path id="Path_67" d="M183.137 1876.672l.189.413.423.066-.306.322.072.454-.378-.214-.378.214.072-.454-.306-.322.423-.066z" class="cls-6" transform="translate(-172.817 -1869.778)"/>
                    <path id="Path_68" d="M233.489 1912.887l.189.413.423.066-.306.322.072.454-.378-.214-.378.214.072-.454-.306-.322.423-.066z" class="cls-6" transform="translate(-221.685 -1904.925)"/>
                    <path id="Path_69" d="M283.842 1876.672l.189.413.423.066-.306.322.072.454-.378-.214-.378.214.072-.454-.306-.322.423-.066z" class="cls-6" transform="translate(-270.554 -1869.778)"/>
                    <path id="Path_70" d="M334.194 1912.887l.189.413.423.066-.306.322.072.454-.378-.214-.378.214.072-.454-.306-.322.423-.066z" class="cls-6" transform="translate(-319.422 -1904.925)"/>
                    <path id="Path_71" d="M384.546 1876.672l.189.413.423.066-.306.322.072.454-.378-.214-.378.214.072-.454-.306-.322.423-.066z" class="cls-6" transform="translate(-368.29 -1869.778)"/>
                    <path id="Path_72" d="M-118.979 1949.1l.189.413.423.066-.306.322.072.454-.378-.214-.378.214.072-.454-.306-.322.423-.066z" class="cls-6" transform="translate(120.394 -1940.072)"/>
                    <path id="Path_73" d="M-18.275 1949.1l.189.413.423.066-.306.322.072.454-.378-.214-.378.214.072-.454-.306-.322.423-.066z" class="cls-6" transform="translate(22.658 -1940.072)"/>
                    <path id="Path_74" d="M82.432 1949.1l.189.413.423.066-.306.322.072.454-.378-.214-.378.214.072-.454-.306-.322.423-.066z" class="cls-6" transform="translate(-75.081 -1940.072)"/>
                    <path id="Path_75" d="M183.137 1949.1l.189.413.423.066-.306.322.072.454-.378-.214-.378.214.072-.454-.306-.322.423-.066z" class="cls-6" transform="translate(-172.817 -1940.072)"/>
                    <path id="Path_76" d="M283.842 1949.1l.189.413.423.066-.306.322.072.454-.378-.214-.378.214.072-.454-.306-.322.423-.066z" class="cls-6" transform="translate(-270.554 -1940.072)"/>
                    <path id="Path_77" d="M384.546 1949.1l.189.413.423.066-.306.322.072.454-.378-.214-.378.214.072-.454-.306-.322.423-.066z" class="cls-6" transform="translate(-368.29 -1940.072)"/>
                </g>
            </g>
        </g>
    </g>
</svg>
