<svg xmlns="http://www.w3.org/2000/svg" width="41.24" height="28.69" viewBox="0 0 41.24 28.69">
    <defs>
        <style>
            .cls-2{fill:#f9ed4a}
        </style>
    </defs>
    <g id="Group_239" transform="translate(-392.433 -1615.191)">
        <g id="Group_206" transform="translate(-5871.453 -4267.955)">
            <circle id="Ellipse_1" cx="10.06" cy="10.06" r="10.06" fill="#2b3990" transform="rotate(-45 10250.987 -4612.375)"/>
            <g id="Group_3" transform="translate(6270.09 5889.517)">
                <path id="Path_16" d="M1831.854 421.557l.277.562.62.09-.449.437.106.618-.555-.292-.555.292.106-.618-.449-.437.62-.09z" class="cls-2" transform="translate(-1823.831 -421.557)"/>
                <path id="Path_17" d="M1831.854 900.891l.277.562.62.09-.449.437.106.618-.555-.292-.555.292.106-.618-.449-.437.62-.09z" class="cls-2" transform="translate(-1823.831 -886.639)"/>
                <path id="Path_18" d="M2071.52 661.224l.277.562.62.09-.449.438.106.617-.555-.291-.555.291.106-.617-.449-.437.62-.09z" class="cls-2" transform="translate(-2056.371 -654.098)"/>
                <path id="Path_19" d="M1592.185 661.224l.277.562.62.09-.448.437.106.618-.555-.292-.555.292.106-.618-.449-.437.62-.09z" class="cls-2" transform="translate(-1591.288 -654.098)"/>
                <path id="Path_20" d="M1712.232 457.513l.521.348.582-.232-.17.6.4.482-.626.025-.334.53-.217-.588-.607-.154.492-.388z" class="cls-2" transform="translate(-1708.198 -456.444)"/>
                <path id="Path_21" d="M1951.894 872.627l.521.348.582-.232-.17.6.4.482-.626.025-.335.53-.217-.588-.607-.154.492-.388z" class="cls-2" transform="translate(-1940.735 -859.216)"/>
                <path id="Path_22" d="M2039.621 545.237l.521.348.582-.232-.17.6.4.482-.626.025-.334.53-.217-.588-.607-.155.492-.388z" class="cls-2" transform="translate(-2025.853 -541.56)"/>
                <path id="Path_23" d="M1624.506 784.9l.521.348.582-.232-.17.6.4.482-.626.025-.334.53-.217-.588-.607-.154.492-.388z" class="cls-2" transform="translate(-1623.081 -774.1)"/>
                <path id="Path_24" d="M1626.457 541.889l.625.041.388-.492.155.607.588.217-.53.334-.025.626-.482-.4-.6.17.232-.582z" class="cls-2" transform="translate(-1625.411 -537.873)"/>
                <path id="Path_25" d="M2041.57 781.557l.625.041.388-.492.154.607.588.217-.529.334-.025.626-.482-.4-.6.17.232-.582z" class="cls-2" transform="translate(-2028.182 -770.415)"/>
                <path id="Path_26" d="M1953.846 454.167l.625.041.388-.492.154.607.588.217-.53.335-.025.626-.482-.4-.6.17.232-.582z" class="cls-2" transform="translate(-1943.066 -452.76)"/>
                <path id="Path_27" d="M1714.179 869.281l.625.041.388-.492.154.607.588.217-.53.335-.025.626-.482-.4-.6.17.232-.582z" class="cls-2" transform="translate(-1710.525 -855.531)"/>
            </g>
        </g>
        <g id="Group_219" transform="translate(405.855 1615.898)">
            <circle id="Ellipse_9" cx="9.585" cy="9.585" r="9.585" fill="#fff" stroke="#808285" stroke-miterlimit="10" transform="rotate(-45 16.362 6.777)"/>
            <circle id="Ellipse_10" cx="6.233" cy="6.233" r="6.233" fill="#ed1c24" transform="rotate(-45 18.73 1.056)"/>
        </g>
    </g>
</svg>
