<svg xmlns="http://www.w3.org/2000/svg" id="Component_9_1" width="37.034" height="28.189" viewBox="0 0 37.034 28.189">
    <defs>
        <clipPath id="clip-path">
            <circle id="Ellipse_3" cx="9.966" cy="9.966" r="9.966" class="cls-1" transform="rotate(-45 17.013 7.047)"/>
        </clipPath>
        <clipPath id="clip-path-2">
            <circle id="Ellipse_2" cx="10" cy="10" r="10" class="cls-1"/>
        </clipPath>
        <style>
            .cls-1{fill:none}.cls-4{stroke:#fff;stroke-miterlimit:10;stroke-width:1.627px}.cls-4,.cls-8{fill:#fff}.cls-5{fill:#bd1c24}
        </style>
    </defs>
    <g id="Group_10">
        <g id="Group_9" clip-path="url(#clip-path)">
            <g id="Group_8" transform="translate(-3.562 4.128)">
                <path id="Path_78" fill="#2b3990" stroke="#fff" stroke-miterlimit="10" stroke-width="1.627px" d="M-103 379.265h-35.223v-19.933H-103v19.933z" transform="translate(138.271 -359.332)"/>
                <path id="Path_79" d="M-123.094 366.73l-11.253-7.4h-3.878v1.77l9.416 5.628" class="cls-4" transform="translate(138.271 -359.332)"/>
                <path id="Path_80" d="M539.879 366.73l11.135-7.4h3.878v1.77l-9.367 5.629" class="cls-4" transform="translate(-519.624 -359.332)"/>
                <path id="Path_81" d="M-123.094 779.885l-11.253 7.4h-3.878v-1.77l9.271-5.628" class="cls-4" transform="translate(138.271 -767.351)"/>
                <path id="Path_82" d="M539.883 779.887l11.134 7.4h3.883v-1.77l-9.318-5.628" class="cls-4" transform="translate(-519.627 -767.353)"/>
                <path id="Path_83" d="M-138.226 371.866h14.889v7.4h5.563v-7.4H-103v-5.136h-14.77v-7.4h-5.563v7.4h-14.889" class="cls-4" transform="translate(138.271 -359.332)"/>
                <path id="Path_84" d="M-104.471 371.1h-15.655v8.171h-3.843V371.1h-15.77l.045-3.591h15.725v-8.171h3.843v8.162h15.655" class="cls-5" transform="translate(139.739 -359.333)"/>
                <path id="Path_86" d="M593.758 366.73h2.273l11.135-7.4h-2.273z" class="cls-5" transform="translate(-571.897 -359.332)"/>
                <path id="Path_87" d="M-124.818 366.73h-2.273l-11.135-7.4h2.273z" class="cls-5" transform="translate(138.271 -359.332)"/>
                <path id="Path_88" d="M-138.226 787.285h2.273l11.135-7.4h-2.273z" class="cls-5" transform="translate(138.271 -767.353)"/>
                <path id="Path_89" d="M607.165 787.284h-2.273l-11.135-7.4h2.273z" class="cls-5" transform="translate(-571.897 -767.351)"/>
            </g>
        </g>
    </g>
    <g id="Group_197" transform="translate(17.034 4.162)">
        <g id="Group_6" clip-path="url(#clip-path-2)">
            <g id="Group_5" transform="translate(-7.671 -.03)">
                <path id="Rectangle_1" fill="#2b3990" d="M0 0H17.671V10.774H0z"/>
                <path id="Rectangle_2" d="M0 0H26.507V1.488H0z" class="cls-5" transform="translate(17.671)"/>
                <path id="Rectangle_3" d="M0 0H26.507V1.488H0z" class="cls-8" transform="translate(17.671 1.548)"/>
                <path id="Rectangle_4" d="M0 0H26.507V1.488H0z" class="cls-5" transform="translate(17.671 3.095)"/>
                <path id="Rectangle_5" d="M0 0H26.507V1.488H0z" class="cls-8" transform="translate(17.671 4.643)"/>
                <path id="Rectangle_6" d="M0 0H26.507V1.488H0z" class="cls-5" transform="translate(17.671 6.191)"/>
                <path id="Rectangle_7" d="M0 0H26.507V1.488H0z" class="cls-8" transform="translate(17.671 7.738)"/>
                <path id="Rectangle_8" d="M0 0H26.507V1.488H0z" class="cls-5" transform="translate(17.671 9.286)"/>
                <path id="Rectangle_9" d="M0 0H44.178V1.488H0z" class="cls-8" transform="translate(0 10.774)"/>
                <path id="Rectangle_10" d="M0 0H44.178V1.488H0z" class="cls-5" transform="translate(0 12.322)"/>
                <path id="Rectangle_11" d="M0 0H44.178V1.488H0z" class="cls-8" transform="translate(0 13.869)"/>
                <path id="Rectangle_12" d="M0 0H44.178V1.488H0z" class="cls-5" transform="translate(0 15.417)"/>
                <path id="Rectangle_13" d="M0 0H44.178V1.488H0z" class="cls-8" transform="translate(0 16.965)"/>
                <path id="Rectangle_14" d="M0 0H44.178V1.488H0z" class="cls-5" transform="translate(0 18.512)"/>
                <path id="Path_28" d="M-118.979 1659.387l.189.413.423.066-.306.322.072.454-.378-.214-.378.214.072-.454-.306-.322.423-.066z" class="cls-8" transform="translate(120.394 -1658.897)"/>
                <path id="Path_29" d="M-68.627 1695.6l.189.413.423.066-.306.322.072.454-.378-.214-.378.214.072-.454-.306-.322.423-.066z" class="cls-8" transform="translate(71.526 -1694.044)"/>
                <path id="Path_30" d="M-18.275 1659.387l.189.413.423.066-.306.322.072.454-.378-.214-.378.214.072-.454-.306-.322.423-.066z" class="cls-8" transform="translate(22.658 -1658.897)"/>
                <path id="Path_31" d="M32.08 1695.6l.189.413.423.066-.306.322.072.454-.378-.214-.378.214.072-.454-.306-.322.423-.066z" class="cls-8" transform="translate(-26.213 -1694.044)"/>
                <path id="Path_32" d="M82.432 1659.387l.189.413.423.066-.306.322.072.454-.378-.214-.378.214.072-.454-.306-.322.423-.066z" class="cls-8" transform="translate(-75.081 -1658.897)"/>
                <path id="Path_33" d="M132.785 1695.6l.189.413.423.066-.306.322.072.454-.378-.214-.378.214.072-.454-.306-.322.423-.066z" class="cls-8" transform="translate(-123.949 -1694.044)"/>
                <path id="Path_34" d="M183.137 1659.387l.189.413.423.066-.306.322.072.454-.378-.214-.378.214.072-.454-.306-.322.423-.066z" class="cls-8" transform="translate(-172.817 -1658.897)"/>
                <path id="Path_35" d="M233.489 1695.6l.189.413.423.066-.306.322.072.454-.378-.214-.378.214.072-.454-.306-.322.423-.066z" class="cls-8" transform="translate(-221.685 -1694.044)"/>
                <path id="Path_36" d="M283.842 1659.387l.189.413.423.066-.306.322.072.454-.378-.214-.378.214.072-.454-.306-.322.423-.066z" class="cls-8" transform="translate(-270.554 -1658.897)"/>
                <path id="Path_37" d="M334.194 1695.6l.189.413.423.066-.306.322.072.454-.378-.214-.378.214.072-.454-.306-.322.423-.066z" class="cls-8" transform="translate(-319.422 -1694.044)"/>
                <path id="Path_38" d="M384.546 1659.387l.189.413.423.066-.306.322.072.454-.378-.214-.378.214.072-.454-.306-.322.423-.066z" class="cls-8" transform="translate(-368.29 -1658.897)"/>
                <path id="Path_39" d="M-118.979 1731.814l.189.413.423.066-.306.322.072.454-.378-.214-.378.214.072-.454-.306-.322.423-.066z" class="cls-8" transform="translate(120.394 -1729.19)"/>
                <path id="Path_40" d="M-68.627 1768.03l.189.413.423.066-.306.322.072.454-.378-.214-.378.214.072-.454-.306-.322.423-.066z" class="cls-8" transform="translate(71.526 -1764.338)"/>
                <path id="Path_41" d="M-18.275 1731.814l.189.413.423.066-.306.322.072.454-.378-.214-.378.214.072-.454-.306-.322.423-.066z" class="cls-8" transform="translate(22.658 -1729.19)"/>
                <path id="Path_42" d="M32.08 1768.03l.189.413.423.066-.306.322.072.454-.378-.214-.378.214.072-.454-.306-.322.423-.066z" class="cls-8" transform="translate(-26.213 -1764.338)"/>
                <path id="Path_43" d="M82.432 1731.814l.189.413.423.066-.306.322.072.454-.378-.214-.378.214.072-.454-.306-.322.423-.066z" class="cls-8" transform="translate(-75.081 -1729.19)"/>
                <path id="Path_44" d="M132.785 1768.03l.189.413.423.066-.306.322.072.454-.378-.214-.378.214.072-.454-.306-.322.423-.066z" class="cls-8" transform="translate(-123.949 -1764.338)"/>
                <path id="Path_45" d="M183.137 1731.814l.189.413.423.066-.306.322.072.454-.378-.214-.378.214.072-.454-.306-.322.423-.066z" class="cls-8" transform="translate(-172.817 -1729.19)"/>
                <path id="Path_46" d="M233.489 1768.03l.189.413.423.066-.306.322.072.454-.378-.214-.378.214.072-.454-.306-.322.423-.066z" class="cls-8" transform="translate(-221.685 -1764.338)"/>
                <path id="Path_47" d="M283.842 1731.814l.189.413.423.066-.306.322.072.454-.378-.214-.378.214.072-.454-.306-.322.423-.066z" class="cls-8" transform="translate(-270.554 -1729.19)"/>
                <path id="Path_48" d="M334.194 1768.03l.189.413.423.066-.306.322.072.454-.378-.214-.378.214.072-.454-.306-.322.423-.066z" class="cls-8" transform="translate(-319.422 -1764.338)"/>
                <path id="Path_49" d="M384.546 1731.814l.189.413.423.066-.306.322.072.454-.378-.214-.378.214.072-.454-.306-.322.423-.066z" class="cls-8" transform="translate(-368.29 -1729.19)"/>
                <path id="Path_50" d="M-118.979 1804.243l.189.413.423.066-.306.322.072.454-.378-.214-.378.214.072-.454-.306-.322.423-.066z" class="cls-8" transform="translate(120.394 -1799.484)"/>
                <path id="Path_51" d="M-68.627 1840.458l.189.413.423.066-.306.322.072.454-.378-.214-.378.214.072-.454-.306-.322.423-.066z" class="cls-8" transform="translate(71.526 -1834.631)"/>
                <path id="Path_52" d="M-18.275 1804.243l.189.413.423.066-.306.322.072.454-.378-.214-.378.214.072-.454-.306-.322.423-.066z" class="cls-8" transform="translate(22.658 -1799.484)"/>
                <path id="Path_53" d="M32.08 1840.458l.189.413.423.066-.306.322.072.454-.378-.214-.378.214.072-.454-.306-.322.423-.066z" class="cls-8" transform="translate(-26.213 -1834.631)"/>
                <path id="Path_54" d="M82.432 1804.243l.189.413.423.066-.306.322.072.454-.378-.214-.378.214.072-.454-.306-.322.423-.066z" class="cls-8" transform="translate(-75.081 -1799.484)"/>
                <path id="Path_55" d="M132.785 1840.458l.189.413.423.066-.306.322.072.454-.378-.214-.378.214.072-.454-.306-.322.423-.066z" class="cls-8" transform="translate(-123.949 -1834.631)"/>
                <path id="Path_56" d="M183.137 1804.243l.189.413.423.066-.306.322.072.454-.378-.214-.378.214.072-.454-.306-.322.423-.066z" class="cls-8" transform="translate(-172.817 -1799.484)"/>
                <path id="Path_57" d="M233.489 1840.458l.189.413.423.066-.306.322.072.454-.378-.214-.378.214.072-.454-.306-.322.423-.066z" class="cls-8" transform="translate(-221.685 -1834.631)"/>
                <path id="Path_58" d="M283.842 1804.243l.189.413.423.066-.306.322.072.454-.378-.214-.378.214.072-.454-.306-.322.423-.066z" class="cls-8" transform="translate(-270.554 -1799.484)"/>
                <path id="Path_59" d="M334.194 1840.458l.189.413.423.066-.306.322.072.454-.378-.214-.378.214.072-.454-.306-.322.423-.066z" class="cls-8" transform="translate(-319.422 -1834.631)"/>
                <path id="Path_60" d="M384.546 1804.243l.189.413.423.066-.306.322.072.454-.378-.214-.378.214.072-.454-.306-.322.423-.066z" class="cls-8" transform="translate(-368.29 -1799.484)"/>
                <path id="Path_61" d="M-118.979 1876.672l.189.413.423.066-.306.322.072.454-.378-.214-.378.214.072-.454-.306-.322.423-.066z" class="cls-8" transform="translate(120.394 -1869.778)"/>
                <path id="Path_62" d="M-68.627 1912.887l.189.413.423.066-.306.322.072.454-.378-.214-.378.214.072-.454-.306-.322.423-.066z" class="cls-8" transform="translate(71.526 -1904.925)"/>
                <path id="Path_63" d="M-18.275 1876.672l.189.413.423.066-.306.322.072.454-.378-.214-.378.214.072-.454-.306-.322.423-.066z" class="cls-8" transform="translate(22.658 -1869.778)"/>
                <path id="Path_64" d="M32.08 1912.887l.189.413.423.066-.306.322.072.454-.378-.214-.378.214.072-.454-.306-.322.423-.066z" class="cls-8" transform="translate(-26.213 -1904.925)"/>
                <path id="Path_65" d="M82.432 1876.672l.189.413.423.066-.306.322.072.454-.378-.214-.378.214.072-.454-.306-.322.423-.066z" class="cls-8" transform="translate(-75.081 -1869.778)"/>
                <path id="Path_66" d="M132.785 1912.887l.189.413.423.066-.306.322.072.454-.378-.214-.378.214.072-.454-.306-.322.423-.066z" class="cls-8" transform="translate(-123.949 -1904.925)"/>
                <path id="Path_67" d="M183.137 1876.672l.189.413.423.066-.306.322.072.454-.378-.214-.378.214.072-.454-.306-.322.423-.066z" class="cls-8" transform="translate(-172.817 -1869.778)"/>
                <path id="Path_68" d="M233.489 1912.887l.189.413.423.066-.306.322.072.454-.378-.214-.378.214.072-.454-.306-.322.423-.066z" class="cls-8" transform="translate(-221.685 -1904.925)"/>
                <path id="Path_69" d="M283.842 1876.672l.189.413.423.066-.306.322.072.454-.378-.214-.378.214.072-.454-.306-.322.423-.066z" class="cls-8" transform="translate(-270.554 -1869.778)"/>
                <path id="Path_70" d="M334.194 1912.887l.189.413.423.066-.306.322.072.454-.378-.214-.378.214.072-.454-.306-.322.423-.066z" class="cls-8" transform="translate(-319.422 -1904.925)"/>
                <path id="Path_71" d="M384.546 1876.672l.189.413.423.066-.306.322.072.454-.378-.214-.378.214.072-.454-.306-.322.423-.066z" class="cls-8" transform="translate(-368.29 -1869.778)"/>
                <path id="Path_72" d="M-118.979 1949.1l.189.413.423.066-.306.322.072.454-.378-.214-.378.214.072-.454-.306-.322.423-.066z" class="cls-8" transform="translate(120.394 -1940.072)"/>
                <path id="Path_73" d="M-18.275 1949.1l.189.413.423.066-.306.322.072.454-.378-.214-.378.214.072-.454-.306-.322.423-.066z" class="cls-8" transform="translate(22.658 -1940.072)"/>
                <path id="Path_74" d="M82.432 1949.1l.189.413.423.066-.306.322.072.454-.378-.214-.378.214.072-.454-.306-.322.423-.066z" class="cls-8" transform="translate(-75.081 -1940.072)"/>
                <path id="Path_75" d="M183.137 1949.1l.189.413.423.066-.306.322.072.454-.378-.214-.378.214.072-.454-.306-.322.423-.066z" class="cls-8" transform="translate(-172.817 -1940.072)"/>
                <path id="Path_76" d="M283.842 1949.1l.189.413.423.066-.306.322.072.454-.378-.214-.378.214.072-.454-.306-.322.423-.066z" class="cls-8" transform="translate(-270.554 -1940.072)"/>
                <path id="Path_77" d="M384.546 1949.1l.189.413.423.066-.306.322.072.454-.378-.214-.378.214.072-.454-.306-.322.423-.066z" class="cls-8" transform="translate(-368.29 -1940.072)"/>
            </g>
        </g>
    </g>
</svg>
