<svg xmlns="http://www.w3.org/2000/svg" width="174.604" height="23.823" viewBox="0 0 174.604 23.823">
    <g>
        <path fill="#09a020" d="M460.224 195.823a1.442 1.442 0 0 1-.712-2.7l17.44-9.891a1.458 1.458 0 0 1 1.528.066l6.477 4.445 8.357-4.523a1.435 1.435 0 0 1 1.493.072l14.229 9.643h5.892l16.382-20.4a1.447 1.447 0 0 1 2.1-.164l7.547 6.867 3.3-2.609a1.441 1.441 0 0 1 1.58-.133l23.292 12.692 13.851-3.805a1.413 1.413 0 0 1 .937.061l12.456 5.183 14.364-5.209a1.431 1.431 0 0 1 .493-.086h14.892a1.43 1.43 0 0 1 1.017.424l5.826 5.82a1.441 1.441 0 1 1-2.038 2.038l-5.4-5.4h-14.043l-14.656 5.316a1.426 1.426 0 0 1-1.046-.026l-12.514-5.204-13.935 3.828a1.415 1.415 0 0 1-1.072-.124l-22.966-12.517-3.517 2.773a1.441 1.441 0 0 1-1.862-.063l-7.316-6.659-15.855 19.746a1.447 1.447 0 0 1-1.124.539h-7.028a1.447 1.447 0 0 1-.807-.248l-13.869-9.4-8.36 4.526a1.438 1.438 0 0 1-1.5-.078l-6.463-4.436-16.656 9.447a1.446 1.446 0 0 1-.714.189z" transform="rotate(180 87.302 11.912) translate(-458.783 -172)"/>
    </g>
</svg>
