<svg xmlns="http://www.w3.org/2000/svg" id="Group_3" width="122.282" height="40" viewBox="0 0 122.282 40">
    <defs>
        <style>
            .cls-2{fill:#fff}
        </style>
    </defs>
    <path id="Path_1" fill="#999" d="M218.923 568.663a5.405 5.405 0 0 1-5.4 5.406H102.047a5.406 5.406 0 0 1-5.406-5.406v-29.188a5.406 5.406 0 0 1 5.406-5.406h111.472a5.405 5.405 0 0 1 5.4 5.406z" transform="translate(-96.641 -534.069)"/>
    <path id="Path_2" d="M146.4 562.682h-9.96a2.162 2.162 0 0 0-2.162 2.161v22.068a2.162 2.162 0 0 0 2.162 2.162h9.96a2.162 2.162 0 0 0 2.163-2.162v-22.067a2.162 2.162 0 0 0-2.163-2.162zm-4.98 24.8a1.44 1.44 0 1 1 1.44-1.44 1.439 1.439 0 0 1-1.445 1.444zm5.445-3.581H135.97v-16.273h10.89z" class="cls-2" transform="translate(-125.276 -555.841)"/>
    <g id="Group_1" transform="translate(30.056 6.467)">
        <path id="Path_3" d="M223.741 566.414l-.605 1.833h-.778l1.98-5.83h.908l1.989 5.83h-.8l-.623-1.833zm1.911-.588l-.58-1.678c-.121-.381-.208-.727-.294-1.064h-.025c-.078.337-.173.7-.286 1.055l-.571 1.687z" class="cls-2" transform="translate(-222.357 -562.106)"/>
        <path id="Path_4" d="M243.432 569.292l.822 2.345c.139.389.251.735.338 1.081h.026c.1-.345.216-.692.354-1.081l.813-2.345h.8l-1.644 4.186h-.727l-1.591-4.186z" class="cls-2" transform="translate(-237.776 -567.338)"/>
        <path id="Path_5" d="M263.408 572.173a7.018 7.018 0 0 0 .061 1h-.683l-.07-.527h-.026a1.545 1.545 0 0 1-1.28.622 1.192 1.192 0 0 1-1.28-1.2c0-1.012.9-1.566 2.517-1.557v-.086a.859.859 0 0 0-.951-.968 2.017 2.017 0 0 0-1.1.311l-.174-.511a2.718 2.718 0 0 1 1.384-.363c1.29 0 1.6.874 1.6 1.713zm-.744-1.133c-.831-.017-1.772.13-1.772.943a.666.666 0 0 0 .708.727 1.057 1.057 0 0 0 1.03-.7.788.788 0 0 0 .034-.243z" class="cls-2" transform="translate(-251.099 -567.035)"/>
        <path id="Path_6" d="M278.763 562.963a.489.489 0 0 1 .018-.977.468.468 0 0 1 .485.484.476.476 0 0 1-.493.493zm-.362 4.956v-4.186h.761v4.186z" class="cls-2" transform="translate(-264.916 -561.778)"/>
        <path id="Path_7" d="M287.043 561.117h.761v6.141h-.761z" class="cls-2" transform="translate(-271.578 -561.117)"/>
        <path id="Path_8" d="M297.23 572.173a7.059 7.059 0 0 0 .06 1h-.684l-.069-.527h-.026a1.546 1.546 0 0 1-1.281.622 1.193 1.193 0 0 1-1.28-1.2c0-1.012.9-1.566 2.517-1.557v-.086a.86.86 0 0 0-.952-.968 2.011 2.011 0 0 0-1.1.311l-.174-.511a2.717 2.717 0 0 1 1.384-.363c1.289 0 1.6.874 1.6 1.713zm-.744-1.133c-.831-.017-1.774.13-1.774.943a.667.667 0 0 0 .709.727 1.057 1.057 0 0 0 1.03-.7.774.774 0 0 0 .035-.243z" class="cls-2" transform="translate(-276.835 -567.035)"/>
        <path id="Path_9" d="M312.474 561.117h.761v2.621h.018a1.552 1.552 0 0 1 1.426-.761c1.039 0 1.765.865 1.765 2.128a2 2 0 0 1-1.885 2.249 1.5 1.5 0 0 1-1.4-.787h-.018l-.043.692h-.656c.026-.286.034-.709.034-1.081zm.761 4.464a1.365 1.365 0 0 0 .027.276 1.181 1.181 0 0 0 1.141.891c.8 0 1.271-.648 1.271-1.609 0-.848-.432-1.565-1.245-1.565a1.263 1.263 0 0 0-1.194 1.254z" class="cls-2" transform="translate(-290.903 -561.117)"/>
        <path id="Path_10" d="M332.986 561.117h.761v6.141h-.761z" class="cls-2" transform="translate(-306.537 -561.117)"/>
        <path id="Path_11" d="M340.737 571.185a1.334 1.334 0 0 0 1.427 1.453 2.881 2.881 0 0 0 1.159-.208l.138.536a3.4 3.4 0 0 1-1.4.269 1.953 1.953 0 0 1-2.059-2.11 2.042 2.042 0 0 1 1.973-2.266 1.767 1.767 0 0 1 1.721 1.972 1.969 1.969 0 0 1-.026.364zm2.223-.545a1.087 1.087 0 0 0-1.047-1.238 1.256 1.256 0 0 0-1.167 1.238z" class="cls-2" transform="translate(-311.876 -567.007)"/>
        <path id="Path_12" d="M367.441 573.271a2 2 0 0 1-2.007-2.154 2.049 2.049 0 0 1 2.076-2.223 1.98 1.98 0 0 1 2.015 2.145 2.051 2.051 0 0 1-2.076 2.231zm.026-.57c.727 0 1.271-.683 1.271-1.635 0-.709-.354-1.6-1.254-1.6s-1.28.831-1.28 1.626c0 .917.519 1.609 1.254 1.609z" class="cls-2" transform="translate(-331.228 -567.035)"/>
        <path id="Path_13" d="M386.268 570.124c0-.442-.01-.787-.036-1.134h.675l.043.683h.017a1.551 1.551 0 0 1 1.383-.778c.579 0 1.481.346 1.481 1.782v2.5h-.762v-2.414c0-.674-.25-1.245-.969-1.245a1.1 1.1 0 0 0-1.02.779 1.141 1.141 0 0 0-.052.355v2.525h-.76z" class="cls-2" transform="translate(-347.053 -567.035)"/>
        <path id="Path_14" d="M413.168 565.1v1h1.089v.58h-1.089v2.258c0 .519.147.813.57.813a1.416 1.416 0 0 0 .442-.052l.034.579a2.067 2.067 0 0 1-.674.1 1.088 1.088 0 0 1-.823-.319 1.642 1.642 0 0 1-.294-1.1v-2.279h-.648v-.58h.648v-.77z" class="cls-2" transform="translate(-366.49 -564.146)"/>
        <path id="Path_15" d="M425.557 561.117h.761v2.612h.017a1.352 1.352 0 0 1 .546-.536 1.479 1.479 0 0 1 .779-.216c.562 0 1.461.346 1.461 1.791v2.491h-.76v-2.4c0-.683-.251-1.246-.969-1.246a1.1 1.1 0 0 0-1.02.761.919.919 0 0 0-.052.364v2.525h-.761z" class="cls-2" transform="translate(-376.977 -561.117)"/>
        <path id="Path_16" d="M444.921 571.185a1.334 1.334 0 0 0 1.427 1.453 2.889 2.889 0 0 0 1.16-.208l.138.536a3.409 3.409 0 0 1-1.4.269 1.953 1.953 0 0 1-2.058-2.11 2.042 2.042 0 0 1 1.972-2.266 1.767 1.767 0 0 1 1.722 1.972 1.944 1.944 0 0 1-.026.364zm2.223-.545a1.087 1.087 0 0 0-1.044-1.24 1.255 1.255 0 0 0-1.168 1.238z" class="cls-2" transform="translate(-391.151 -567.007)"/>
        <path id="Path_17" d="M470.889 562.963a.489.489 0 0 1 .017-.977.468.468 0 0 1 .484.484.477.477 0 0 1-.494.493zm-.364 4.956v-4.186h.761v4.186z" class="cls-2" transform="translate(-411.108 -561.778)"/>
        <path id="Path_18" d="M479.275 562.358a7.828 7.828 0 0 1 1.445-.121 2.387 2.387 0 0 1 1.634.485 1.57 1.57 0 0 1 .52 1.219 1.683 1.683 0 0 1-.459 1.245 2.412 2.412 0 0 1-1.781.64 2.644 2.644 0 0 1-.605-.051v2.335h-.753zm.753 2.8a2.568 2.568 0 0 0 .623.061c.917 0 1.462-.45 1.462-1.237s-.545-1.15-1.375-1.15a3.728 3.728 0 0 0-.709.061z" class="cls-2" transform="translate(-417.852 -561.969)"/>
        <path id="Path_19" d="M498.053 561.117h.761v2.612h.017a1.355 1.355 0 0 1 .545-.536 1.484 1.484 0 0 1 .779-.216c.562 0 1.461.346 1.461 1.791v2.491h-.761v-2.4c0-.683-.251-1.246-.969-1.246a1.1 1.1 0 0 0-1.02.761.918.918 0 0 0-.052.364v2.525h-.761z" class="cls-2" transform="translate(-432.141 -561.117)"/>
        <path id="Path_20" d="M518.691 573.271a2 2 0 0 1-2.007-2.154 2.049 2.049 0 0 1 2.076-2.223 1.979 1.979 0 0 1 2.014 2.145 2.051 2.051 0 0 1-2.075 2.231zm.027-.57c.725 0 1.271-.683 1.271-1.635 0-.709-.354-1.6-1.255-1.6s-1.281.831-1.281 1.626c0 .917.519 1.609 1.254 1.609z" class="cls-2" transform="translate(-446.318 -567.035)"/>
        <path id="Path_21" d="M537.521 570.124c0-.442-.009-.787-.035-1.134h.675l.043.683h.018a1.552 1.552 0 0 1 1.384-.778c.579 0 1.478.346 1.478 1.782v2.5h-.76v-2.414c0-.674-.251-1.245-.969-1.245a1.1 1.1 0 0 0-1.02.779 1.126 1.126 0 0 0-.053.355v2.525h-.76z" class="cls-2" transform="translate(-462.146 -567.035)"/>
        <path id="Path_22" d="M557 571.185a1.335 1.335 0 0 0 1.428 1.453 2.879 2.879 0 0 0 1.158-.208l.139.536a3.41 3.41 0 0 1-1.4.269 1.953 1.953 0 0 1-2.059-2.11 2.042 2.042 0 0 1 1.972-2.266 1.767 1.767 0 0 1 1.722 1.972 1.965 1.965 0 0 1-.026.364zm2.223-.545a1.087 1.087 0 0 0-1.047-1.238A1.255 1.255 0 0 0 557 570.64z" class="cls-2" transform="translate(-476.432 -567.007)"/>
    </g>
    <g id="Group_2" transform="translate(29.895 16.316)">
        <path id="Path_23" d="M226.811 603.32l-5.128 15.1h2.348l1.531-4.635h4.966l1.574 4.635h2.413l-5.151-15.1zm1.217 2.482c.173.674.36 1.373.6 2.129l1.382 4h-3.934l1.363-4.029c.209-.649.405-1.355.589-2.102z" class="cls-2" transform="translate(-221.683 -603.079)"/>
        <path id="Path_24" d="M284.624 619.69a4.273 4.273 0 0 0-3.631 1.742l-.091-1.5h-2.089l.012.192c.061.935.087 1.965.087 3.443V635.2h2.288v-5.43a4.012 4.012 0 0 0 3.122 1.341 4.711 4.711 0 0 0 3.461-1.471 6.243 6.243 0 0 0 1.528-4.393 6.075 6.075 0 0 0-1.327-4.011 4.345 4.345 0 0 0-3.36-1.546zm-.569 1.891c2.036 0 2.947 1.886 2.947 3.755 0 2.411-1.162 3.908-3.034 3.908a2.769 2.769 0 0 1-2.691-2.119 2.918 2.918 0 0 1-.082-.74v-1.837a3.408 3.408 0 0 1 .073-.564l.033-.185a2.892 2.892 0 0 1 2.754-2.218z" class="cls-2" transform="translate(-265.155 -615.536)"/>
        <path id="Path_25" d="M333.82 619.69a4.275 4.275 0 0 0-3.632 1.742l-.091-1.5h-2.089l.012.192c.061.936.088 1.965.088 3.443V635.2h2.285v-5.43a4.008 4.008 0 0 0 3.121 1.341 4.715 4.715 0 0 0 3.463-1.471 6.248 6.248 0 0 0 1.527-4.393 6.076 6.076 0 0 0-1.328-4.011 4.343 4.343 0 0 0-3.356-1.546zm-.568 1.891c2.035 0 2.946 1.886 2.946 3.755 0 2.411-1.163 3.908-3.034 3.908a2.769 2.769 0 0 1-2.691-2.119 2.925 2.925 0 0 1-.08-.74v-1.837a3.3 3.3 0 0 1 .073-.566l.033-.184a2.89 2.89 0 0 1 2.753-2.217z" class="cls-2" transform="translate(-302.589 -615.536)"/>
        <path id="Path_26" d="M396.64 608.951c-2.132-.825-2.815-1.475-2.815-2.674 0-1.01.8-2.028 2.6-2.028a5.19 5.19 0 0 1 2.681.673l.194.12.644-1.906-.127-.075a6.62 6.62 0 0 0-3.326-.746c-2.913 0-4.947 1.72-4.947 4.181 0 1.985 1.274 3.372 4.009 4.366 1.938.725 2.659 1.467 2.659 2.739 0 1.44-1.113 2.334-2.9 2.334a6.253 6.253 0 0 1-3.292-.933l-.2-.127-.613 1.95.113.075a7.818 7.818 0 0 0 3.86.992c3.926 0 5.318-2.394 5.318-4.444-.005-2.114-1.121-3.417-3.858-4.497z" class="cls-2" transform="translate(-350.675 -602.314)"/>
        <path id="Path_27" d="M434.909 609.816l-2.24.7v1.9h-1.64v1.826h1.64v5.592a4.273 4.273 0 0 0 .791 2.9 2.928 2.928 0 0 0 2.21.868 5.372 5.372 0 0 0 1.766-.273l.128-.045-.109-1.829-.219.067a3.439 3.439 0 0 1-1.062.123c-.885 0-1.263-.56-1.263-1.875v-5.526h2.755v-1.826h-2.755z" class="cls-2" transform="translate(-380.979 -608.022)"/>
        <path id="Path_28" d="M465.183 619.69c-3.2 0-5.427 2.385-5.427 5.8 0 3.312 2.16 5.624 5.252 5.624h.021c2.615 0 5.427-1.821 5.427-5.82a5.772 5.772 0 0 0-1.455-4.04 5.083 5.083 0 0 0-3.818-1.564zm-.066 1.8c2.055 0 2.99 2 2.99 3.865 0 2.29-1.276 3.951-3.033 3.951h-.022c-1.732 0-2.99-1.634-2.99-3.886 0-1.953.945-3.927 3.055-3.927z" class="cls-2" transform="translate(-402.839 -615.536)"/>
        <path id="Path_29" d="M515.681 619.8l-.137-.035a2.2 2.2 0 0 0-.568-.071 3.257 3.257 0 0 0-2.864 1.838l-.068-1.6H510l.013.192c.061.9.086 1.919.086 3.289l-.022 7.461h2.284v-5.821a5.964 5.964 0 0 1 .063-.885 2.525 2.525 0 0 1 2.4-2.3 5.906 5.906 0 0 1 .613.038l.244.025z" class="cls-2" transform="translate(-441.067 -615.536)"/>
        <path id="Path_30" d="M538.819 619.6c-3.041 0-5.165 2.429-5.165 5.908 0 3.35 2.113 5.515 5.383 5.515a8.769 8.769 0 0 0 3.617-.694l.137-.062-.438-1.7-.191.077a7.073 7.073 0 0 1-2.862.512 3.175 3.175 0 0 1-3.421-3.312l7.373.022.029-.146a5.052 5.052 0 0 0 .069-.953c0-2.386-1.187-5.167-4.531-5.167zm-.153 1.737a2.253 2.253 0 0 1 1.677.64 3.247 3.247 0 0 1 .786 2.126h-5.208a2.914 2.914 0 0 1 2.745-2.767z" class="cls-2" transform="translate(-459.069 -615.467)"/>
    </g>
</svg>
