<svg xmlns="http://www.w3.org/2000/svg" width="50.341" height="50" viewBox="0 0 50.341 50">
    <path fill="#fff" d="M0 0H50V50H0z" transform="translate(.341)"/>
    <g>
        <g>
            <path d="M130.192 19.871v-5.985H85.2v5.985a9.435 9.435 0 0 0 .621 3.334 9.043 9.043 0 0 0 8.379 5.667h26.987a8.975 8.975 0 0 0 8.379-5.667 9.113 9.113 0 0 0 .626-3.334z" transform="translate(-85.199 16.131)"/>
            <path fill="#ebebeb" d="M0 0H45V14.993H0z" transform="translate(0 15.018)"/>
            <path fill="#00793d" d="M130.192 30.881v-6.015a8.9 8.9 0 0 0-.621-3.3 9 9 0 0 0-8.379-5.7H94.2a8.983 8.983 0 0 0-5.97 2.273 8.7 8.7 0 0 0-2.409 3.424 9.207 9.207 0 0 0-.621 3.3v6.016z" transform="translate(-85.199 -15.865)"/>
        </g>
        <path fill="#cd1225" d="M115.146 34.28l-9.985-7.5-16.926-12.744a8.7 8.7 0 0 0-2.409 3.424 9.207 9.207 0 0 0-.621 3.3v27a9.435 9.435 0 0 0 .621 3.334 8.945 8.945 0 0 0 2.394 3.394l16.94-12.708z" transform="translate(-85.199 -11.763)"/>
    </g>
</svg>
