<svg xmlns="http://www.w3.org/2000/svg" id="Group_25" width="122.283" height="40" viewBox="0 0 122.283 40">
    <defs>
        <linearGradient id="linear-gradient" x1=".5" x2=".5" y2="1" gradientUnits="objectBoundingBox">
            <stop offset="0" stop-color="#316199"/>
            <stop offset=".278" stop-color="#4c839c"/>
            <stop offset=".764" stop-color="#79baa2"/>
            <stop offset="1" stop-color="#8bd0a5"/>
        </linearGradient>
        <linearGradient id="linear-gradient-2" x2="1" y1=".5" y2=".5" gradientUnits="objectBoundingBox">
            <stop offset="0" stop-color="#5dbc91"/>
            <stop offset="1" stop-color="#daef7e"/>
        </linearGradient>
        <linearGradient id="linear-gradient-3" x1=".5" x2=".5" y2="1" gradientUnits="objectBoundingBox">
            <stop offset="0" stop-color="#f91b1c"/>
            <stop offset=".358" stop-color="#c61e48"/>
            <stop offset=".79" stop-color="#8f2179"/>
            <stop offset="1" stop-color="#7a238d"/>
        </linearGradient>
        <linearGradient id="linear-gradient-4" x1=".5" x2=".5" y2="1" gradientUnits="objectBoundingBox">
            <stop offset="0" stop-color="#fa6c61"/>
            <stop offset=".113" stop-color="#fa775f"/>
            <stop offset=".711" stop-color="#fdae57"/>
            <stop offset="1" stop-color="#fec455"/>
        </linearGradient>
        <clipPath id="clip-path">
            <path id="Path_67" fill="none" d="M152.334 137.541l-5.514-3.184-10.636-6.141c-.59-.341-1.179-.134-1.179.578v25.019c0 .534.421.765.934.468L146.82 148l5.514-3.183 5.3-3.06c.622-.359.562-.852.038-1.134s-5.338-3.082-5.338-3.082z" transform="translate(-135.006 -128.056)"/>
        </clipPath>
        <style>
            .cls-8{fill:#f9f9f9}.cls-9{fill:#fbfbfb}
        </style>
    </defs>
    <path id="Path_61" fill="#999" d="M218.924 129.116a5.405 5.405 0 0 1-5.4 5.406H102.047a5.406 5.406 0 0 1-5.406-5.406V99.928a5.406 5.406 0 0 1 5.406-5.406h111.472a5.405 5.405 0 0 1 5.4 5.406z" transform="translate(-96.641 -94.522)"/>
    <g id="PLAY" transform="translate(9.172 8.017)">
        <g id="Group_8" clip-path="url(#clip-path)">
            <path id="Path_63" fill="url(#linear-gradient)" d="M135.006 126.292v27.088l13.659-13.544z" transform="translate(-135.006 -126.714)"/>
            <path id="Path_64" fill="url(#linear-gradient-2)" d="M152.334 135.885l-5.514-3.185-11.814-6.821v.1l13.659 13.544z" transform="translate(-135.006 -126.4)"/>
            <path id="Path_65" fill="url(#linear-gradient-3)" d="M135.006 196.489v.1l11.814-6.822 5.514-3.183-3.669-3.638z" transform="translate(-135.006 -169.823)"/>
            <path id="Path_66" fill="url(#linear-gradient-4)" d="M195.808 167.729l-3.669 3.638 3.669 3.633 6.3-3.638z" transform="translate(-178.48 -158.244)"/>
        </g>
    </g>
    <g id="Group_9" transform="translate(91.501 15.107)">
        <path id="Path_68" d="M483.033 179.105a3.411 3.411 0 0 1-1.405-.284 2.649 2.649 0 0 1-1.068-.873h-.086a10.587 10.587 0 0 1 .086 1.308v3.244h-1.193v-11.416h.97l.165 1.078h.057a2.778 2.778 0 0 1 1.072-.935 3.257 3.257 0 0 1 1.4-.287 2.911 2.911 0 0 1 2.419 1.071 5.7 5.7 0 0 1-.014 6.02 2.919 2.919 0 0 1-2.403 1.074zm-.173-7.152a2.114 2.114 0 0 0-1.746.668 3.442 3.442 0 0 0-.554 2.128v.266a3.941 3.941 0 0 0 .554 2.376 2.105 2.105 0 0 0 1.775.715 1.847 1.847 0 0 0 1.6-.826 3.922 3.922 0 0 0 .578-2.279 3.775 3.775 0 0 0-.578-2.26 1.9 1.9 0 0 0-1.628-.788z" class="cls-8" transform="translate(-479.368 -167.777)"/>
        <path id="Path_69" d="M516.137 168.895h-1.193v-11.184h1.193z" class="cls-8" transform="translate(-506.439 -157.711)"/>
        <path id="Path_70" d="M531.331 179.007l-.237-1.121h-.057a3.3 3.3 0 0 1-1.176 1 3.574 3.574 0 0 1-1.462.263 2.631 2.631 0 0 1-1.836-.6 2.2 2.2 0 0 1-.665-1.718q0-2.386 3.817-2.5l1.337-.043v-.488a2 2 0 0 0-.4-1.369 1.639 1.639 0 0 0-1.276-.442 5.2 5.2 0 0 0-2.228.6l-.367-.913a5.606 5.606 0 0 1 1.276-.5 5.524 5.524 0 0 1 1.391-.18 3 3 0 0 1 2.088.625 2.611 2.611 0 0 1 .679 2.005v5.376zm-2.7-.841a2.423 2.423 0 0 0 1.75-.611 2.262 2.262 0 0 0 .636-1.711v-.711l-1.194.05a4.338 4.338 0 0 0-2.052.442 1.333 1.333 0 0 0-.629 1.218 1.227 1.227 0 0 0 .392.985 1.625 1.625 0 0 0 1.102.338z" class="cls-8" transform="translate(-514.773 -167.823)"/>
        <path id="Path_71" d="M555.222 171.541h1.278l1.725 4.492a17.161 17.161 0 0 1 .7 2.221h.058q.093-.367.391-1.255t1.951-5.459h1.28l-3.386 8.97a4.476 4.476 0 0 1-1.176 1.887 2.5 2.5 0 0 1-1.649.557 4.814 4.814 0 0 1-1.078-.122v-.956a4.167 4.167 0 0 0 .884.086 1.823 1.823 0 0 0 1.754-1.38l.438-1.121z" class="cls-8" transform="translate(-537.087 -168.235)"/>
    </g>
    <g id="Group_11" transform="translate(37.108 14.226)">
        <path id="Path_72" d="M382.689 172.715a2.684 2.684 0 0 1-.215 4.564 1.159 1.159 0 0 0-.461.808.9.9 0 0 0 .429.708l.593.46a2.869 2.869 0 0 1 1.383 2.308c0 1.548-1.5 3.113-4.333 3.113-2.39 0-3.542-1.137-3.542-2.357a2.371 2.371 0 0 1 1.269-2.01 7.1 7.1 0 0 1 3.147-.758 1.725 1.725 0 0 1-.495-1.12 1.485 1.485 0 0 1 .165-.643c-.182.016-.363.033-.528.033a2.6 2.6 0 0 1-2.735-2.586 2.964 2.964 0 0 1 1.054-2.208 4.493 4.493 0 0 1 2.95-.906h3.394l-1.055.593zm-1.17 7.316a2.554 2.554 0 0 0-.378-.017 6.581 6.581 0 0 0-1.73.265 1.851 1.851 0 0 0-1.417 1.7c0 1.169 1.138 2.011 2.9 2.011 1.581 0 2.422-.76 2.422-1.78-.001-.845-.545-1.289-1.797-2.179zM382 176.9a1.666 1.666 0 0 0 .411-1.2c0-1.186-.708-3.032-2.075-3.032a1.54 1.54 0 0 0-1.154.544 1.9 1.9 0 0 0-.363 1.22c0 1.1.643 2.933 2.06 2.933A1.686 1.686 0 0 0 382 176.9z" class="cls-8" transform="translate(-346.733 -167.796)"/>
        <path id="Path_73" d="M346.087 179.022a3.882 3.882 0 0 1-4.014-3.883 4.076 4.076 0 0 1 4.261-4 3.846 3.846 0 0 1 3.931 3.882 4.02 4.02 0 0 1-4.178 4.001zm2.056-1.332a2.976 2.976 0 0 0 .494-1.827c0-1.448-.691-4.211-2.731-4.211a2.29 2.29 0 0 0-1.48.56 2.489 2.489 0 0 0-.758 2.007c0 1.627.806 4.308 2.8 4.308a2.1 2.1 0 0 0 1.675-.837z" class="cls-8" transform="translate(-320.504 -167.05)"/>
        <path id="Path_74" d="M308.79 179.022a3.882 3.882 0 0 1-4.014-3.883 4.077 4.077 0 0 1 4.261-4 3.846 3.846 0 0 1 3.931 3.882 4.02 4.02 0 0 1-4.178 4.001zm2.056-1.332a2.979 2.979 0 0 0 .494-1.827c0-1.448-.691-4.211-2.731-4.211a2.292 2.292 0 0 0-1.48.56 2.489 2.489 0 0 0-.757 2.007c0 1.627.806 4.308 2.8 4.308a2.1 2.1 0 0 0 1.674-.837z" class="cls-8" transform="translate(-292.124 -167.05)"/>
        <path id="Path_75" d="M263.251 166.913l-2.365.546a17.5 17.5 0 0 1-2.729.281 5.877 5.877 0 0 1-6.3-5.987c0-3.208 2.464-6.185 6.682-6.185a9.521 9.521 0 0 1 2.53.347 6.445 6.445 0 0 1 2.183 1.025l-1.373 1.307-.579.132.413-.662a4.727 4.727 0 0 0-3.539-1.554 4.568 4.568 0 0 0-4.582 4.879 5.849 5.849 0 0 0 5.854 6.036 4.925 4.925 0 0 0 2.1-.414V164l-2.5.132 1.322-.712h3.507l-.429.413a.387.387 0 0 0-.166.264c-.017.149-.033.629-.033.794z" class="cls-8" transform="translate(-251.856 -155.199)"/>
        <path id="Path_76" d="M412.934 165.264c-.546-.05-.66-.148-.66-.794v-9.361c0-.036.006-.072.009-.107.067-.578.232-.678.745-.976h-2.366l-1.241.6h1.264v10.212c0 .33-.065.38-.446.876h2.928l.612-.363c-.279-.038-.563-.051-.845-.087z" class="cls-8" transform="translate(-371.751 -154.026)"/>
        <path id="Path_77" d="M433.185 178.457c-.18.1-.361.214-.541.3a3.829 3.829 0 0 1-1.595.312 3.51 3.51 0 0 1-2.185-.641 4.251 4.251 0 0 1-1.674-3.466 3.722 3.722 0 0 1 3.761-3.793 3.192 3.192 0 0 1 1.693.46 2.719 2.719 0 0 1 1.148 1.625l-3.859 1.561-1.265.1c.41 2.086 1.822 3.3 3.383 3.3a4.244 4.244 0 0 0 2-.574zm-1.543-4.9c.311-.115.476-.213.476-.443a1.63 1.63 0 0 0-1.626-1.413 2.023 2.023 0 0 0-1.889 2.283c0 .279.033.575.05.871z" class="cls-8" transform="translate(-385.272 -167.067)"/>
        <g id="Group_10" transform="translate(49.008 4.098)">
            <path id="Path_78" d="M457.336 171.277v1.084h-.136v-1.084h-.359v-.112h.849v.112z" class="cls-8" transform="translate(-456.846 -171.165)"/>
            <path id="Path_79" d="M462.2 172.361v-1.094l-.334 1.094h-.1l-.337-1.094v1.094h-.12v-1.2h.2l.3.967.3-.967h.208v1.2z" class="cls-8" transform="translate(-460.234 -171.165)"/>
        </g>
    </g>
    <g id="Group_12" transform="translate(37.136 7.953)">
        <path id="Path_80" d="M255.23 131.454h-.822a5.453 5.453 0 0 0-.234-.961h-1.187a4.964 4.964 0 0 0-.241.961h-.773q0-.1.6-1.644a12.906 12.906 0 0 0 .6-1.7h.971a14.183 14.183 0 0 0 .543 1.676 14.66 14.66 0 0 1 .543 1.668zM254.044 130a14.524 14.524 0 0 1-.439-1.433h-.041a15.026 15.026 0 0 1-.454 1.433z" class="cls-9" transform="translate(-251.974 -128.033)"/>
        <path id="Path_81" d="M270.676 131.454h-.635a6.257 6.257 0 0 0-.706-1.112 6.122 6.122 0 0 1-.842-1.451h-.041a9.048 9.048 0 0 1 .064 1.017q0 .634.036 1.546h-.632q.039-.8.038-1.749 0-.937-.038-1.595h.763a4.826 4.826 0 0 0 .634 1.086 6.4 6.4 0 0 1 .776 1.369h.038a9.746 9.746 0 0 1-.061-1.027q0-.7-.036-1.428h.642q-.036.637-.036 1.595t.036 1.749z" class="cls-9" transform="translate(-264.108 -128.033)"/>
        <path id="Path_82" d="M286.025 129.618a1.894 1.894 0 0 1-.468 1.274 1.632 1.632 0 0 1-1.31.545q-.38 0-1.048-.031.033-.776.033-1.749 0-.935-.033-1.595h.449q.11 0 .329-.008t.285-.008a1.73 1.73 0 0 1 1.345.462 1.6 1.6 0 0 1 .418 1.11zm-.7.11a1.237 1.237 0 0 0-.288-.831 1.091 1.091 0 0 0-.878-.338 2.738 2.738 0 0 0-.3.023q.026.514.026 1.073 0 .614.026 1.217a1.7 1.7 0 0 0 .334.033.97.97 0 0 0 .818-.343 1.324 1.324 0 0 0 .261-.834z" class="cls-9" transform="translate(-275.735 -127.984)"/>
        <path id="Path_83" d="M300.758 131.405H300a5.053 5.053 0 0 0-.457-1.122.6.6 0 0 0-.514-.213h-.285q0 .66.023 1.333h-.714q.033-.776.033-1.749 0-.935-.033-1.595h.444q.077 0 .322-.008t.453-.008q1.179 0 1.179.806a.9.9 0 0 1-.673.891v.038a.8.8 0 0 1 .455.4 8.917 8.917 0 0 1 .525 1.227zm-.963-2.363q0-.511-.657-.511a2.256 2.256 0 0 0-.426.036q.028.4.028 1.037.141.005.239.005.816.001.816-.567z" class="cls-9" transform="translate(-287.035 -127.984)"/>
        <path id="Path_84" d="M314.366 129.475a1.845 1.845 0 0 1-.483 1.307 1.567 1.567 0 0 1-1.194.519 1.509 1.509 0 0 1-1.135-.476 1.678 1.678 0 0 1-.457-1.211 1.844 1.844 0 0 1 .483-1.307 1.566 1.566 0 0 1 1.194-.519 1.512 1.512 0 0 1 1.135.475 1.677 1.677 0 0 1 .457 1.212zm-.709.074a1.326 1.326 0 0 0-.275-.87.846.846 0 0 0-.678-.334.784.784 0 0 0-.637.336 1.344 1.344 0 0 0-.262.85 1.322 1.322 0 0 0 .276.869.846.846 0 0 0 .677.335.783.783 0 0 0 .637-.338 1.344 1.344 0 0 0 .262-.847z" class="cls-9" transform="translate(-296.962 -127.788)"/>
        <path id="Path_85" d="M328.532 131.454h-.732q.033-.8.033-1.749 0-.937-.033-1.595h.727q-.033.647-.033 1.595.006.968.038 1.749z" class="cls-9" transform="translate(-309.676 -128.033)"/>
        <path id="Path_86" d="M337.424 129.618a1.894 1.894 0 0 1-.467 1.274 1.632 1.632 0 0 1-1.31.545q-.38 0-1.048-.031.033-.776.034-1.749 0-.935-.034-1.595h.449q.11 0 .329-.008c.145-.005.241-.008.285-.008a1.73 1.73 0 0 1 1.345.462 1.6 1.6 0 0 1 .417 1.11zm-.7.11a1.239 1.239 0 0 0-.288-.831 1.091 1.091 0 0 0-.878-.338 2.733 2.733 0 0 0-.3.023q.026.514.026 1.073 0 .614.026 1.217a1.7 1.7 0 0 0 .334.033.97.97 0 0 0 .818-.343 1.324 1.324 0 0 0 .261-.834z" class="cls-9" transform="translate(-314.845 -127.984)"/>
        <path id="Path_87" d="M356.706 131.454h-.822a5.416 5.416 0 0 0-.234-.961h-1.187a4.956 4.956 0 0 0-.241.961h-.773q0-.1.6-1.644a12.885 12.885 0 0 0 .6-1.7h.971a14.161 14.161 0 0 0 .543 1.676 14.717 14.717 0 0 1 .543 1.668zM355.52 130a14.562 14.562 0 0 1-.439-1.433h-.041a15.017 15.017 0 0 1-.454 1.433z" class="cls-9" transform="translate(-329.19 -128.033)"/>
        <path id="Path_88" d="M371.836 128.937a1 1 0 0 1-.456.907 2.025 2.025 0 0 1-1.118.293q-.121 0-.172-.005 0 .483.028 1.274h-.718q.033-.742.033-1.749 0-.925-.033-1.595h.447q.095 0 .365-.008t.467-.008a1.47 1.47 0 0 1 .824.221.747.747 0 0 1 .333.67zm-.663.141q0-.549-.729-.55a2.053 2.053 0 0 0-.385.039q.028.485.028 1.1c.043 0 .093.005.149.005q.937 0 .937-.594z" class="cls-9" transform="translate(-341.323 -127.984)"/>
        <path id="Path_89" d="M384.72 128.937a1 1 0 0 1-.456.907 2.027 2.027 0 0 1-1.119.293c-.081 0-.138 0-.172-.005q0 .483.028 1.274h-.722q.033-.742.033-1.749 0-.925-.033-1.595h.447q.1 0 .365-.008t.467-.008a1.47 1.47 0 0 1 .824.221.747.747 0 0 1 .338.67zm-.663.141q0-.549-.729-.55a2.053 2.053 0 0 0-.385.039q.028.485.028 1.1.064.005.149.005.937 0 .937-.594z" class="cls-9" transform="translate(-351.127 -127.984)"/>
        <path id="Path_90" d="M403.144 129.475a1.844 1.844 0 0 1-.483 1.307 1.566 1.566 0 0 1-1.194.519 1.509 1.509 0 0 1-1.135-.476 1.679 1.679 0 0 1-.457-1.211 1.845 1.845 0 0 1 .483-1.307 1.567 1.567 0 0 1 1.194-.519 1.513 1.513 0 0 1 1.135.475 1.679 1.679 0 0 1 .457 1.212zm-.709.074a1.325 1.325 0 0 0-.275-.87.846.846 0 0 0-.678-.334.784.784 0 0 0-.637.336 1.343 1.343 0 0 0-.262.85 1.322 1.322 0 0 0 .276.869.845.845 0 0 0 .677.335.782.782 0 0 0 .637-.338 1.343 1.343 0 0 0 .262-.847z" class="cls-9" transform="translate(-364.515 -127.788)"/>
        <path id="Path_91" d="M419.34 131.454h-.634a6.256 6.256 0 0 0-.706-1.112 6.126 6.126 0 0 1-.842-1.451h-.041a9.1 9.1 0 0 1 .064 1.017q0 .634.036 1.546h-.632q.038-.8.038-1.749 0-.937-.038-1.595h.763a4.831 4.831 0 0 0 .635 1.086 6.4 6.4 0 0 1 .776 1.369h.039a9.687 9.687 0 0 1-.062-1.027q0-.7-.036-1.428h.642q-.036.637-.036 1.595t.034 1.749z" class="cls-9" transform="translate(-377.23 -128.033)"/>
    </g>
</svg>
