<svg xmlns="http://www.w3.org/2000/svg" id="_004-graph" width="70" height="70" viewBox="0 0 70 70">
    <defs>
        <style>
            .cls-1{fill:#e41469}
        </style>
    </defs>
    <path id="Path_9987" d="M35 0A34.781 34.781 0 0 0 8.34 12.53V6.289a2.051 2.051 0 1 0-4.1 0v12.3a2.051 2.051 0 0 0 2.051 2.051h12.3a2.051 2.051 0 0 0 0-4.1h-8.206A30.733 30.733 0 1 1 4.1 34.863a29.3 29.3 0 0 1 1.106-7.555 2.051 2.051 0 1 0-3.972-1.022A34.253 34.253 0 0 0 0 34.863 35 35 0 1 0 35 0z" class="cls-1"/>
    <path id="Path_9988" d="M101.254 287.406a2.051 2.051 0 0 0 2.051-2.051v-12.3a2.051 2.051 0 0 0-2.051-2.055h-8.2A2.051 2.051 0 0 0 91 273.051v12.3a2.051 2.051 0 0 0 2.051 2.051zM95.1 275.1h4.1v8.2h-4.1z" class="cls-1" transform="translate(-78.559 -233.949)"/>
    <path id="Path_9989" d="M221.254 235.609a2.051 2.051 0 0 0 2.051-2.051v-20.507a2.051 2.051 0 0 0-2.051-2.051h-8.2a2.051 2.051 0 0 0-2.054 2.051v20.508a2.051 2.051 0 0 0 2.051 2.051zM215.1 215.1h4.1v16.406h-4.1z" class="cls-1" transform="translate(-182.152 -182.152)"/>
    <path id="Path_9990" d="M341.254 157.914a2.051 2.051 0 0 0 2.051-2.051v-32.812a2.051 2.051 0 0 0-2.051-2.051h-8.2a2.051 2.051 0 0 0-2.054 2.051v32.813a2.051 2.051 0 0 0 2.051 2.051zM335.1 125.1h4.1v28.711h-4.1z" class="cls-1" transform="translate(-285.746 -104.457)"/>
</svg>
