<svg xmlns="http://www.w3.org/2000/svg" width="56.602" height="70" viewBox="0 0 56.602 70">
    <defs>
        <style>
            .cls-1{fill:#e41469}
        </style>
    </defs>
    <g id="_003-money" transform="translate(-49 -.001)">
        <path id="Path_9984" d="M132.551 113a19.551 19.551 0 1 0 19.549 19.551A19.573 19.573 0 0 0 132.551 113zm0 35A15.449 15.449 0 1 1 148 132.551 15.467 15.467 0 0 1 132.551 148z" class="cls-1" transform="translate(-55.25 -97.55)"/>
        <path id="Path_9985" d="M103.551 9.982c-.156 0-15.663-.242-24.8-9.38a2.051 2.051 0 0 0-2.9 0c-9.108 9.108-24.651 9.379-24.8 9.38A2.051 2.051 0 0 0 49 12.032v18.886a39.94 39.94 0 0 0 20.334 34.767l6.966 4.053a2.05 2.05 0 0 0 2.011 0l6.962-4.053A39.941 39.941 0 0 0 105.6 30.917V12.032a2.051 2.051 0 0 0-2.051-2.051zM101.5 30.917A35.834 35.834 0 0 1 83.257 62.11L77.3 65.6l-5.955-3.49A35.834 35.834 0 0 1 53.1 30.917V13.992c8.441-.612 17.711-3.539 24.2-9.143 6.485 5.6 15.755 8.531 24.2 9.143z" class="cls-1"/>
        <path id="Path_9986" d="M221.177 182.341a14.094 14.094 0 0 1-3.521-1.623.8.8 0 0 1-.079-.633 1.138 1.138 0 0 1 .725-.9 2.068 2.068 0 0 1 2.114.227 2.051 2.051 0 0 0 2.923-2.877 5.419 5.419 0 0 0-2.383-1.37v-.114a2.051 2.051 0 0 0-4.1 0v.3c-3.7 1.343-4.546 6.388-1.729 8.6a16.975 16.975 0 0 0 4.686 2.263 1.368 1.368 0 0 1 1.028 1.636 1.948 1.948 0 0 1-1.948 1.655 3.635 3.635 0 0 1-2.69-.7 2.051 2.051 0 1 0-2.245 3.432 7.437 7.437 0 0 0 2.9 1.233v.2a2.051 2.051 0 0 0 4.1 0v-.429c4.966-1.801 5.624-8.99.219-10.9z" class="cls-1" transform="translate(-141.601 -149.347)"/>
    </g>
</svg>
