<svg xmlns="http://www.w3.org/2000/svg" width="50.046" height="50" viewBox="0 0 50.046 50">
    <defs>
        <style>
            .cls-2{fill:#939393;fill-rule:evenodd}
        </style>
    </defs>
    <g id="Group_3155" transform="translate(-1218.954 -467)">
        <g id="Group_3153" transform="translate(1218.989 467)">
            <path id="Rectangle_2063" fill="#fff" d="M0 0H50V50H0z" transform="translate(.011)"/>
        </g>
        <g id="Group_3154" transform="translate(-1202.513 -942.41)">
            <path id="Path_10018" d="M2442.222 1412.214a19.789 19.789 0 1 0 21.465 17.968 19.481 19.481 0 0 0-2.276-7.6 17.384 17.384 0 0 0-3.145-4.3c-.217-.2-.384-.379-.6-.59a19.462 19.462 0 0 0-15.443-5.476m-.485-2.676c-6.336.641-10.855 3.428-14.832 7.7a23.4 23.4 0 0 0-4.123 7.108 22.5 22.5 0 1 0 18.955-14.8z" class="cls-2"/>
            <path id="Path_10019" d="M2676.173 1684.324c0-3.858-4.423-6.985-9.879-6.985s-9.879 3.127-9.879 6.985 4.423 6.984 9.879 6.984c.433 0 .856-.026 1.274-.064l4 2.317v-3.34c2.762-1.238 4.6-3.413 4.6-5.9" class="cls-2" transform="translate(-222.327 -253.528)"/>
        </g>
    </g>
</svg>
