<svg xmlns="http://www.w3.org/2000/svg" width="15" height="15.547" viewBox="0 0 15 15.547">
    <defs>
        <style>
            .cls-1{fill:#e41469}
        </style>
    </defs>
    <g id="pdf-file" transform="translate(-9)">
        <path id="Path_9975" d="M82.419 209h-.964a.455.455 0 0 0-.455.457l.007 3.46a.455.455 0 0 0 .911 0v-1.051h.5a1.432 1.432 0 1 0 0-2.864zm0 1.953h-.5v-.523-.521h.507a.522.522 0 1 1 0 1.043z" class="cls-1" transform="translate(-69.814 -202.654)"/>
        <path id="Path_9976" d="M210.407 209h-.951a.455.455 0 0 0-.455.456l.007 3.36a.456.456 0 0 0 .455.454c.029 0 .707 0 .979-.008a1.931 1.931 0 0 0 1.776-2.127 1.886 1.886 0 0 0-1.811-2.135zm.02 3.352l-.51.005v-2.446h.5c.836 0 .9.937.9 1.224-.009.598-.282 1.206-.89 1.217z" class="cls-1" transform="translate(-193.927 -202.654)"/>
        <path id="Path_9977" d="M354.848 208.753a.455.455 0 0 0 0-.911h-1.393a.456.456 0 0 0-.456.455v3.436a.455.455 0 1 0 .911 0v-1.3h.826a.455.455 0 1 0 0-.911h-.826v-.775z" class="cls-1" transform="translate(-333.555 -201.531)"/>
        <path id="Path_9978" d="M22.634 4.4H22.3v-.13a2.268 2.268 0 0 0-.625-1.567l-1.892-2A2.287 2.287 0 0 0 18.13 0h-6.063A1.368 1.368 0 0 0 10.7 1.366V4.4h-.334A1.368 1.368 0 0 0 9 5.769v5.466a1.368 1.368 0 0 0 1.366 1.365h.334v1.58a1.368 1.368 0 0 0 1.366 1.366h8.866A1.368 1.368 0 0 0 22.3 14.18V12.6h.334A1.368 1.368 0 0 0 24 11.235V5.769A1.368 1.368 0 0 0 22.634 4.4zM11.611 1.366a.456.456 0 0 1 .455-.455h6.064a1.372 1.372 0 0 1 .992.426l1.892 2a1.361 1.361 0 0 1 .375.94V4.4h-9.778zm9.778 12.814a.456.456 0 0 1-.455.455h-8.867a.456.456 0 0 1-.455-.455V12.6h9.777zm1.7-2.945a.456.456 0 0 1-.455.455H10.366a.456.456 0 0 1-.455-.455V5.769a.456.456 0 0 1 .455-.455h12.268a.456.456 0 0 1 .455.455z" class="cls-1"/>
    </g>
</svg>
