<svg xmlns="http://www.w3.org/2000/svg" width="36.262" height="31.822" viewBox="0 0 36.262 31.822">
    <path fill="#707070" d="M9.575 11.83V-1.861H2.3a30.064 30.064 0 0 1 .308-4.255A12.621 12.621 0 0 1 3.778-10 7.9 7.9 0 0 1 6-12.777a5.483 5.483 0 0 1 3.453-1.048v-6.167a11.97 11.97 0 0 0-6.044 1.48 12.622 12.622 0 0 0-4.257 3.947A17.682 17.682 0 0 0-3.314-8.83a29.179 29.179 0 0 0-.8 6.969V11.83zm22.571 0V-1.861h-7.277a30.064 30.064 0 0 1 .308-4.255A12.621 12.621 0 0 1 26.349-10a7.9 7.9 0 0 1 2.22-2.775 5.483 5.483 0 0 1 3.453-1.048v-6.167a11.97 11.97 0 0 0-6.044 1.48 12.622 12.622 0 0 0-4.255 3.947 17.682 17.682 0 0 0-2.466 5.733 29.179 29.179 0 0 0-.8 6.969V11.83z" transform="translate(4.116 19.992)"/>
</svg>
