<svg xmlns="http://www.w3.org/2000/svg" width="36.261" height="31.822" viewBox="0 0 36.261 31.822">
    <path fill="#707070" d="M-4.116-19.992V-6.3h7.277a30.064 30.064 0 0 1-.308 4.255 12.621 12.621 0 0 1-1.172 3.884 7.9 7.9 0 0 1-2.22 2.776 5.483 5.483 0 0 1-3.454 1.048v6.167a11.886 11.886 0 0 0 6.105-1.48A12.819 12.819 0 0 0 6.306 6.4 17.681 17.681 0 0 0 8.773.668a29.178 29.178 0 0 0 .8-6.969v-13.691zm22.571 0V-6.3h7.277a30.064 30.064 0 0 1-.308 4.255 12.621 12.621 0 0 1-1.172 3.885 7.9 7.9 0 0 1-2.22 2.775 5.483 5.483 0 0 1-3.453 1.048v6.167a11.886 11.886 0 0 0 6.105-1.48 12.819 12.819 0 0 0 4.193-3.95A17.682 17.682 0 0 0 31.344.668a29.179 29.179 0 0 0 .8-6.969v-13.691z" transform="translate(4.116 19.992)"/>
</svg>
