<svg xmlns="http://www.w3.org/2000/svg" width="44.5" height="44.5" viewBox="0 0 44.5 44.5">
    <defs>
        <style>
            .cls-1{fill:#e41469}
        </style>
    </defs>
    <g id="tick" transform="translate(.006 -.48)">
        <path id="Path_9972" d="M22.246.48A22.252 22.252 0 1 0 37.978 7 22.248 22.248 0 0 0 22.246.48zm0 42.434a20.182 20.182 0 1 1 20.182-20.182 20.208 20.208 0 0 1-20.182 20.181zm0 0" class="cls-1"/>
        <path id="Path_9973" d="M123.09 146.962l-13.361 12.771-7.286-7.276a1.032 1.032 0 1 0-1.459 1.459l8 8a1.017 1.017 0 0 0 .735.3 1 1 0 0 0 .714-.29l14.086-13.465a1.036 1.036 0 0 0-1.428-1.5zm0 0" class="cls-1" transform="translate(-90.266 -131.071)"/>
    </g>
</svg>
