<svg xmlns="http://www.w3.org/2000/svg" width="78.677" height="70" viewBox="0 0 78.677 70">
    <defs>
        <style>
            .cls-1{fill:#e41469}
        </style>
    </defs>
    <g id="_001-return-of-investment" transform="translate(-.001 -28.235)">
        <path id="Path_9979" d="M68.986 231.936a2.3 2.3 0 0 0-3.111.972 29.416 29.416 0 0 1-55.484-13.568l1.85 1.85a2.3 2.3 0 0 0 3.26-3.26l-5.681-5.681a2.3 2.3 0 0 0-3.52.051l-5.624 5.63a2.3 2.3 0 0 0 3.26 3.26l1.846-1.846a34.026 34.026 0 0 0 64.177 15.7 2.3 2.3 0 0 0-.972-3.111z" class="cls-1" transform="translate(0 -155.069)"/>
        <path id="Path_9980" d="M124.575 60.349a2.3 2.3 0 0 0-3.26 0l-1.846 1.846a34.026 34.026 0 0 0-64.177-15.7 2.3 2.3 0 1 0 4.084 2.139A29.416 29.416 0 0 1 114.859 62.2l-1.85-1.85a2.3 2.3 0 1 0-3.26 3.26l5.679 5.679a2.3 2.3 0 0 0 3.517-.05l5.629-5.629a2.3 2.3 0 0 0 .001-3.261z" class="cls-1" transform="translate(-46.572)"/>
        <path id="Path_9981" d="M213.5 159.575a22.376 22.376 0 0 1-5.685-2.642 1.911 1.911 0 0 1-.438-1.816 2.608 2.608 0 0 1 1.718-2.057 4.6 4.6 0 0 1 4.158.611 2.305 2.305 0 0 0 2.76-3.692 9.192 9.192 0 0 0-3.433-1.54v-.939a2.305 2.305 0 1 0-4.61 0v1.088c-.068.019-.136.037-.2.057a7.169 7.169 0 0 0-4.919 5.618 6.4 6.4 0 0 0 2.123 6.3 24.355 24.355 0 0 0 6.993 3.361 2.971 2.971 0 0 1 2.151 3.484 3.884 3.884 0 0 1-3.854 3.276c-2.228.016-2.922-.1-4.634-1.215a2.3 2.3 0 1 0-2.524 3.858 10.265 10.265 0 0 0 4.868 1.876v1.054a2.305 2.305 0 0 0 4.61 0v-1.275a8.257 8.257 0 0 0 3.416-1.9 8.649 8.649 0 0 0 2.664-4.912 7.6 7.6 0 0 0-5.164-8.595z" class="cls-1" transform="translate(-171.008 -98.987)"/>
    </g>
</svg>
