<svg xmlns="http://www.w3.org/2000/svg" width="50" height="50" viewBox="0 0 50 50">
    <defs>
        <style>
            .cls-1{fill:#fff}.cls-2{fill:#04247b}.cls-3{fill:#ce152a}
        </style>
    </defs>
    <g id="Group_3156" transform="translate(-477 -467)">
        <path id="Rectangle_2061" d="M0 0H50V50H0z" class="cls-1" transform="translate(477 467)"/>
        <g id="Group_3147" transform="translate(477 467)">
            <path id="Path_9999" d="M25.936 18.968v13.42l-14.31-7.162a8.8 8.8 0 0 1 8.423-6.258z" class="cls-2" transform="translate(-11.24 -18.968)"/>
            <path id="Path_10000" d="M27.9 25.226l-14.321 7.162v-13.42h5.887a8.814 8.814 0 0 1 8.434 6.258z" class="cls-2" transform="translate(15.767 -18.968)"/>
            <path id="Path_10001" d="M25.936 21.032v13.435h-5.887a8.809 8.809 0 0 1-8.423-6.273z" class="cls-2" transform="translate(-11.24 9.574)"/>
            <path id="Path_10002" d="M27.9 28.194a8.827 8.827 0 0 1-8.438 6.273h-5.883V21.032z" class="cls-2" transform="translate(15.767 9.574)"/>
            <path id="Path_10003" d="M55.641 29.956v18.773l-.845-.415h-6.569l7.414 3.707V54.2a8.962 8.962 0 0 1-.371 2.536l-14.324-7.162v13.435H26.3V49.574l-14.31 7.162a8.128 8.128 0 0 1-.311-1.5l13.85-6.925H18.94l-7.34 3.68V33.263l.816.4h6.569L11.6 29.956v-2.18a8.567 8.567 0 0 1 .386-2.551L26.3 32.388v-13.42h14.646v13.42l14.324-7.162a9.743 9.743 0 0 1 .311 1.483l-13.894 6.954h6.569z" class="cls-1" transform="translate(-11.6 -18.968)"/>
            <path id="Path_10004" d="M18.981 23.4H12.4l-.8-.4v-3.29z" class="cls-3" transform="translate(-11.593 -8.714)"/>
            <path id="Path_10005" d="M21.489 21.371v3.289l-7.419-3.713h6.578z" class="cls-3" transform="translate(22.554 8.398)"/>
            <path id="Path_10006" d="M27.583 20.558v2.18L20.2 26.445h-6.571l13.894-6.955a8.587 8.587 0 0 1 .06 1.068z" class="cls-3" transform="translate(16.458 -11.749)"/>
            <path id="Path_10007" d="M25.524 20.947l-13.85 6.925a7.956 7.956 0 0 1-.074-1.038v-2.21l7.34-3.677z" class="cls-3" transform="translate(-11.6 8.399)"/>
            <path id="Path_10008" d="M55.636 36.581v8.809H38.022V63h-8.807V45.39H11.6v-8.809h17.615V18.968h8.807v17.613z" class="cls-3" transform="translate(-11.593 -18.968)"/>
        </g>
    </g>
</svg>
